<svg width="24" height="24" viewBox="0 0 24 24" fill="none" xmlns="http://www.w3.org/2000/svg">
<path d="M1 1.06004C1.36022 1.06004 1.72044 1.06004 2.08066 1.06004C2.08066 1.12007 2.08066 1.12007 2.14069 1.18011C2.14069 1.18011 2.14069 1.24015 2.14069 1.30018C2.14069 1.30018 2.14069 1.30018 2.14069 1.24015C2.14069 1.24015 2.14069 1.24015 2.14069 1.18011C2.14069 1.18011 2.14069 1.18011 2.08066 1.18011V1.12007H2.14069C2.14069 1.12007 2.14069 1.12007 2.20073 1.12007C2.20073 1.12007 2.20073 1.12007 2.20073 1.06004C2.20073 1.06004 2.20073 1.06004 2.26076 1.06004H2.20073C2.3208 1.06004 2.38084 1.06004 2.50091 1.06004C2.50091 1.06004 2.50091 1.12007 2.56095 1.12007V1.18011C2.56095 1.18011 2.62098 1.18011 2.62098 1.18011H2.68102V1.24015C2.68102 1.24015 2.68102 1.24015 2.74106 1.24015C2.74106 1.24015 2.74106 1.24015 2.74106 1.18011C2.80109 1.18011 2.80109 1.12007 2.80109 1.06004V1C5.86295 1 8.9248 1 11.9867 1C11.9867 1 11.9867 1 12.0467 1C12.9472 1 13.7878 1 14.6883 1C14.5682 1.18011 14.4482 1.36022 14.3281 1.54033C14.3281 1.54033 14.3281 1.54033 14.268 1.60036C14.268 1.60036 14.208 1.60036 14.148 1.54033C14.0879 1.54033 14.0879 1.48029 14.0879 1.48029L14.0279 1.54033V1.60036C14.0279 1.60036 14.0279 1.60036 13.9679 1.60036C13.9679 1.60036 13.9679 1.6604 14.0279 1.6604V1.72044C14.0879 1.72044 14.148 1.72044 14.208 1.72044C14.208 1.78047 14.148 1.78047 14.148 1.84051C13.9679 2.08065 13.8478 2.3208 13.6677 2.62098C12.7671 2.62098 11.9266 2.62098 11.0261 2.62098C10.966 2.74106 10.906 2.80109 10.846 2.92116C10.7859 2.9812 10.7859 3.04124 10.7259 3.10127C10.6659 3.16131 10.6659 3.22135 10.6058 3.28138C10.6058 3.22135 10.5458 3.22135 10.4857 3.22135C10.4857 3.22135 10.4857 3.22135 10.4857 3.28138L10.4257 3.34142C10.3657 3.34142 10.3657 3.28138 10.3657 3.28138H10.4257C10.3657 3.28138 10.3657 3.28138 10.3056 3.28138C10.3056 3.28138 10.3056 3.22135 10.2456 3.22135H10.1856C10.1255 3.22135 10.1255 3.16131 10.0655 3.16131H10.0055L9.94542 3.10127C9.88539 3.10127 9.82535 2.9812 9.76531 2.9812C9.76531 2.9812 9.70528 2.9812 9.70528 2.92116C9.70528 2.92116 9.64524 2.9812 9.64524 2.92116C9.64524 2.92116 9.64524 2.92116 9.64524 2.9812H9.70528L9.76531 3.04124C9.76531 3.04124 9.82535 3.04124 9.82535 3.10127C9.82535 3.10127 9.88539 3.16131 9.88539 3.16131C9.88539 3.16131 9.88539 3.16131 9.94542 3.16131C10.0055 3.16131 10.0055 3.22135 10.0055 3.22135L9.94542 3.16131H10.0055L10.0655 3.22135C10.0655 3.22135 10.0655 3.22135 10.0055 3.22135C10.0055 3.22135 10.0655 3.28138 10.1255 3.28138C10.1856 3.34142 10.2456 3.40146 10.3657 3.40146H10.4257C10.3657 3.46149 10.3657 3.52153 10.3056 3.58156C10.2456 3.6416 10.1856 3.76167 10.1255 3.82171C10.1255 3.76167 10.0055 3.70164 9.94542 3.76167C9.94542 3.76167 9.94542 3.76167 9.94542 3.82171V3.88175L9.88539 3.94178V4.00182H9.82535H9.76531L9.70528 4.06186C9.64524 4.06186 9.64524 4.12189 9.64524 4.12189C9.70528 4.18193 9.76531 4.24196 9.82535 4.24196V4.302C9.46513 4.84233 9.10491 5.44269 8.74469 5.98302C8.98484 5.98302 9.22499 5.98302 9.46513 5.98302C9.64524 5.98302 9.88539 5.98302 10.0655 5.98302C10.0655 5.98302 10.0655 5.98302 10.0055 6.04306C10.0055 6.04306 10.0055 6.10309 10.0655 6.10309H10.1255V6.04306C10.1255 6.04306 10.0655 6.04306 10.1255 5.98302C10.4257 5.98302 10.7859 5.98302 11.0861 5.98302C11.2662 5.98302 11.4463 5.98302 11.6865 5.98302H11.6264C11.1462 6.16313 10.7259 6.34324 10.2456 6.58338C10.2456 6.58338 10.2456 6.58338 10.2456 6.52335V6.58338C8.80473 7.18375 7.30382 7.78411 5.86295 8.44451C5.80291 8.44451 5.80291 8.50455 5.74287 8.50455C5.6228 8.56458 5.56277 8.56458 5.44269 8.62462C5.38266 8.62462 5.38266 8.68466 5.32262 8.68466C4.9624 8.68466 4.54215 8.68466 4.18193 8.68466C4.36204 8.38448 4.54215 8.14433 4.72226 7.90418L4.78229 7.96422H4.84233C4.84233 7.96422 4.84233 7.90418 4.90237 7.90418C4.90237 7.84415 4.90237 7.84415 4.90237 7.78411C4.84233 7.78411 4.84233 7.84415 4.84233 7.84415C4.78229 7.84415 4.72226 7.84415 4.72226 7.78411C4.78229 7.78411 4.78229 7.78411 4.84233 7.78411H4.78229C4.84233 7.72408 4.84233 7.66404 4.90237 7.604C4.90237 7.604 4.90237 7.54397 4.9624 7.54397C5.98302 5.92298 7.00364 4.302 8.02426 2.68102C6.82353 2.68102 5.6228 2.68102 4.42207 2.68102C4.36204 2.68102 4.302 2.68102 4.24196 2.68102C3.52153 2.3208 2.80109 1.96058 2.08066 1.60036C2.02062 1.60036 2.02062 1.54033 1.96058 1.54033C1.90055 1.54033 1.90055 1.54033 1.84051 1.48029C1.96058 1.36022 1.96058 1.36022 2.02062 1.30018H1.96058V1.36022H1.90055L1.84051 1.42025C1.72044 1.42025 1.60036 1.36022 1.48029 1.30018V1.24015C1.42025 1.24015 1.42025 1.24015 1.42025 1.24015H1.36022C1.30018 1.18011 1.18011 1.18011 1.12007 1.12007C1.06004 1.12007 1.06004 1.06004 1 1.06004ZM8.32444 1.12007C8.38448 1.12007 8.38448 1.12007 8.32444 1.12007C8.38448 1.18011 8.38448 1.18011 8.44451 1.18011H8.38448C8.44451 1.12007 8.38448 1.12007 8.32444 1.12007ZM14.3281 1.18011C14.3281 1.24015 14.3281 1.24015 14.3281 1.30018V1.36022C14.3281 1.36022 14.3281 1.42025 14.3881 1.36022C14.3881 1.30018 14.3881 1.30018 14.4482 1.24015C14.3881 1.24015 14.3881 1.24015 14.3281 1.18011C14.3881 1.24015 14.3881 1.24015 14.3881 1.24015C14.3881 1.24015 14.3881 1.24015 14.4482 1.24015C14.4482 1.18011 14.4482 1.18011 14.3281 1.18011C14.3881 1.18011 14.3881 1.12007 14.3281 1.18011ZM2.02062 1.24015H1.96058C1.96058 1.24015 1.96058 1.24015 1.96058 1.30018C1.96058 1.30018 2.02062 1.30018 2.02062 1.24015C2.08066 1.24015 2.08066 1.24015 2.02062 1.24015C2.08066 1.24015 2.08066 1.24015 2.08066 1.24015C2.08066 1.18011 2.08066 1.24015 2.02062 1.24015ZM8.02426 1.24015C8.08429 1.30018 8.14433 1.24015 8.20437 1.30018V1.36022H8.14433C8.14433 1.36022 8.14433 1.36022 8.08429 1.36022C8.08429 1.36022 8.02426 1.36022 8.02426 1.42025C8.02426 1.42025 8.02426 1.42025 8.02426 1.48029V1.54033C8.02426 1.60036 8.02426 1.60036 7.96422 1.6604C7.96422 1.6604 7.96422 1.60036 7.90418 1.60036V1.6604C7.90418 1.6604 7.90418 1.72044 7.84415 1.72044C7.84415 1.72044 7.90418 1.6604 7.96422 1.6604C7.96422 1.60036 8.02426 1.60036 8.02426 1.60036C8.08429 1.54033 8.08429 1.54033 8.14433 1.48029C8.14433 1.48029 8.20437 1.48029 8.20437 1.42025C8.20437 1.36022 8.2644 1.36022 8.2644 1.36022V1.42025C8.2644 1.42025 8.2644 1.42025 8.2644 1.48029C8.2644 1.48029 8.20437 1.48029 8.20437 1.54033C8.20437 1.54033 8.20437 1.54033 8.2644 1.54033C8.2644 1.54033 8.2644 1.54033 8.2644 1.48029C8.2644 1.42025 8.2644 1.42025 8.2644 1.36022C8.2644 1.36022 8.20437 1.36022 8.20437 1.30018C8.20437 1.24015 8.14433 1.24015 8.14433 1.24015C8.14433 1.30018 8.08429 1.24015 8.02426 1.24015ZM13.9679 1.24015C13.9679 1.30018 13.9679 1.30018 13.9679 1.24015C14.0279 1.30018 14.0279 1.36022 14.0879 1.36022C14.0879 1.36022 14.0879 1.36022 14.0879 1.42025C14.0879 1.42025 14.0879 1.42025 14.148 1.42025C14.148 1.36022 14.148 1.36022 14.148 1.30018C14.0279 1.30018 13.9679 1.24015 13.9679 1.24015ZM7.54397 1.30018C7.48393 1.30018 7.48393 1.30018 7.54397 1.30018ZM2.20073 1.36022C2.20073 1.42025 2.20073 1.42025 2.20073 1.48029C2.20073 1.48029 2.20073 1.48029 2.26076 1.48029V1.54033C2.26076 1.54033 2.26076 1.54033 2.26076 1.48029C2.3208 1.48029 2.26076 1.54033 2.26076 1.54033H2.3208C2.3208 1.48029 2.3208 1.48029 2.38084 1.42025C2.38084 1.42025 2.3208 1.42025 2.20073 1.36022C2.26076 1.36022 2.26076 1.36022 2.20073 1.36022ZM7.72408 1.48029C7.72408 1.42025 7.78411 1.42025 7.84415 1.42025V1.36022C7.72408 1.42025 7.66404 1.48029 7.72408 1.48029ZM8.86477 1.42025C8.9248 1.42025 8.98484 1.42025 8.98484 1.48029C8.98484 1.48029 8.98484 1.48029 8.9248 1.42025C8.9248 1.42025 8.9248 1.42025 8.86477 1.42025ZM13.6677 1.54033C13.6677 1.60036 13.6677 1.60036 13.6677 1.6604C13.6677 1.6604 13.6677 1.6604 13.6677 1.72044C13.6677 1.78047 13.7277 1.78047 13.7277 1.84051C13.7277 1.84051 13.7277 1.90055 13.7878 1.90055C13.7878 1.84051 13.7878 1.78047 13.7277 1.72044C13.7277 1.6604 13.7277 1.60036 13.7878 1.60036C13.7878 1.48029 13.7277 1.54033 13.6677 1.54033ZM13.9078 1.84051C13.9679 1.84051 13.9679 1.84051 13.9078 1.84051ZM10.1255 2.26076C10.1856 2.20073 10.1255 2.20073 10.1255 2.26076C10.1856 2.26076 10.1255 2.3208 10.1856 2.3208V2.26076C10.1856 2.20073 10.1856 2.20073 10.1255 2.26076C10.1255 2.20073 10.1255 2.20073 10.1255 2.26076ZM11.0861 2.20073C11.0861 2.20073 11.0861 2.26076 11.0861 2.3208C11.0861 2.3208 11.1462 2.3208 11.1462 2.38084H11.2062C11.2062 2.38084 11.2062 2.3208 11.1462 2.3208C11.0861 2.26076 11.0861 2.20073 11.0861 2.20073ZM10.4257 2.62098L10.3657 2.68102H10.4257C10.4257 2.68102 10.4257 2.62098 10.4857 2.62098C10.4257 2.68102 10.4257 2.68102 10.4257 2.62098C10.4257 2.68102 10.3657 2.68102 10.4257 2.62098C10.4257 2.68102 10.4257 2.68102 10.4257 2.62098C10.4857 2.68102 10.4857 2.68102 10.4857 2.68102C10.4857 2.68102 10.4857 2.62098 10.4257 2.62098ZM10.4857 2.80109C10.5458 2.80109 10.4857 2.86113 10.4857 2.80109ZM8.20437 3.58156C8.14433 3.6416 8.14433 3.6416 8.20437 3.58156C8.2644 3.58156 8.2644 3.6416 8.2644 3.6416C8.2644 3.6416 8.20437 3.6416 8.20437 3.58156C8.2644 3.58156 8.2644 3.58156 8.2644 3.58156C8.2644 3.58156 8.2644 3.58156 8.32444 3.58156C8.38448 3.58156 8.38448 3.58156 8.44451 3.6416C8.44451 3.6416 8.44451 3.6416 8.44451 3.70164C8.50455 3.76167 8.56459 3.76167 8.62462 3.76167C8.68466 3.76167 8.80473 3.76167 8.86477 3.76167H8.9248C8.86477 3.70164 8.80473 3.70164 8.80473 3.70164C8.80473 3.70164 8.80473 3.70164 8.74469 3.70164C8.74469 3.70164 8.74469 3.70164 8.68466 3.70164C8.62462 3.70164 8.62462 3.70164 8.56458 3.70164C8.56458 3.70164 8.50455 3.70164 8.50455 3.6416C8.44451 3.6416 8.44451 3.6416 8.38448 3.6416C8.32444 3.6416 8.2644 3.6416 8.2644 3.58156C8.2644 3.58156 8.20437 3.58156 8.20437 3.58156ZM10.1255 3.6416C10.1255 3.6416 10.1255 3.70164 10.1856 3.70164C10.1856 3.70164 10.1856 3.70164 10.1255 3.6416C10.1856 3.6416 10.1856 3.6416 10.1255 3.6416ZM10.0655 3.76167C10.0655 3.82171 10.1255 3.82171 10.1856 3.82171C10.1856 3.82171 10.1856 3.82171 10.1856 3.76167C10.1255 3.70164 10.0655 3.70164 10.0655 3.76167ZM8.14433 5.26258C8.14433 5.32262 8.20437 5.32262 8.2644 5.38266C8.2644 5.38266 8.32444 5.38266 8.38448 5.38266H8.44451L8.50455 5.32262H8.44451C8.44451 5.38266 8.38448 5.38266 8.32444 5.32262C8.32444 5.32262 8.38448 5.32262 8.38448 5.26258C8.2644 5.20255 8.20437 5.20255 8.14433 5.26258ZM8.44451 5.6228C8.50455 5.6228 8.50455 5.6228 8.50455 5.6228C8.50455 5.6228 8.56458 5.6228 8.56458 5.68284L8.50455 5.6228C8.50455 5.6228 8.44451 5.6228 8.44451 5.6228ZM7.90418 5.56277C7.90418 5.6228 7.96422 5.6228 7.96422 5.6228C8.02426 5.68284 8.08429 5.68284 8.14433 5.68284V5.6228C8.14433 5.6228 8.14433 5.6228 8.20437 5.6228C8.20437 5.6228 8.20437 5.6228 8.2644 5.6228V5.56277C8.20437 5.50273 8.20437 5.50273 8.14433 5.50273C8.08429 5.56276 7.96422 5.56277 7.90418 5.56277ZM10.0655 6.10309C10.1255 6.10309 10.1255 6.04306 10.0655 6.10309C10.0655 6.04306 10.0655 6.04306 10.0655 6.10309ZM8.38448 6.16313C8.32444 6.22317 8.2644 6.22317 8.2644 6.2832C8.2644 6.34324 8.2644 6.34324 8.2644 6.34324V6.40327H8.20437V6.46331L8.14433 6.52335C8.08429 6.52335 8.08429 6.64342 8.02426 6.64342C8.02426 6.58338 8.08429 6.58338 8.08429 6.58338V6.52335C8.08429 6.52335 8.08429 6.52335 8.08429 6.46331C8.08429 6.46331 8.08429 6.46331 8.14433 6.46331C8.14433 6.40327 8.20437 6.40327 8.20437 6.40327C8.20437 6.40327 8.20437 6.34324 8.2644 6.34324H8.32444H8.38448C8.38448 6.34324 8.38448 6.34324 8.38448 6.2832C8.38448 6.22317 8.44451 6.22317 8.44451 6.22317C8.44451 6.22317 8.44451 6.22317 8.38448 6.2832H8.44451V6.22317C8.44451 6.22317 8.44451 6.22317 8.38448 6.22317H8.32444H8.2644V6.16313C8.32444 6.22317 8.38448 6.22317 8.38448 6.16313C8.44451 6.16313 8.50455 6.16313 8.50455 6.22317L8.44451 6.16313H8.38448ZM7.96422 6.22317V6.2832C8.02426 6.2832 8.02426 6.2832 8.08429 6.2832C8.08429 6.2832 8.08429 6.22317 8.02426 6.22317H7.96422ZM10.3056 6.52335C10.3056 6.58338 10.3056 6.58338 10.3056 6.58338C10.3657 6.58338 10.3657 6.58338 10.3056 6.52335ZM8.74469 6.88357C8.74469 6.9436 8.74469 6.9436 8.74469 7.00364C8.74469 7.00364 8.74469 7.00364 8.80473 7.00364C8.80473 6.9436 8.80473 6.88357 8.74469 6.88357C8.80473 6.88357 8.80473 6.88357 8.86477 6.88357C8.80473 6.82353 8.74469 6.82353 8.74469 6.88357ZM8.62462 7.18375L8.56458 7.24378C8.56458 7.24378 8.56459 7.30382 8.62462 7.30382H8.68466C8.68466 7.24378 8.68466 7.24378 8.62462 7.18375C8.68466 7.24378 8.68466 7.18375 8.62462 7.18375C8.68466 7.18375 8.74469 7.18375 8.74469 7.18375V7.12371C8.68466 7.18375 8.68466 7.18375 8.62462 7.18375ZM7.00364 7.30382C7.06368 7.36386 7.12371 7.36386 7.12371 7.42389L7.06368 7.48393V7.54397C7.06368 7.54397 7.06368 7.54397 7.06368 7.48393C7.06368 7.48393 7.06368 7.48393 7.12371 7.54397H7.18375C7.18375 7.54397 7.18375 7.54397 7.24378 7.54397C7.24378 7.54397 7.30382 7.54397 7.30382 7.604C7.30382 7.54397 7.24378 7.54397 7.24378 7.48393C7.24378 7.48393 7.24378 7.48393 7.30382 7.42389C7.24378 7.42389 7.24378 7.36386 7.18375 7.42389H7.12371C7.12371 7.42389 7.12371 7.42389 7.12371 7.36386C7.06368 7.30382 7.06368 7.30382 7.00364 7.30382ZM5.44269 7.54397C5.44269 7.54397 5.44269 7.54397 5.38266 7.604C5.44269 7.604 5.44269 7.54397 5.44269 7.54397ZM5.50273 7.604C5.50273 7.66404 5.44269 7.66404 5.50273 7.604ZM5.20255 7.72408C5.26258 7.72408 5.26258 7.72408 5.26258 7.72408C5.26258 7.72408 5.26258 7.66404 5.20255 7.72408Z" fill="#D43D5D"/>
<path d="M13.1274 5.86298C13.1875 5.86298 13.2475 5.86298 13.3075 5.86298C13.4877 5.86298 13.6077 5.86298 13.7878 5.86298V5.92301C13.8479 5.92301 13.8479 5.86298 13.8479 5.86298C14.6283 5.86298 15.4088 5.86298 16.1893 5.86298C16.3694 5.86298 16.4895 5.86298 16.6696 5.86298C16.6096 5.92301 16.5495 5.92301 16.4895 5.98305H16.5495C16.6096 5.92301 16.6096 5.86298 16.6696 5.86298C18.2906 5.86298 19.9716 5.86298 21.5926 5.86298H21.6526C21.7126 5.92301 21.7727 6.04308 21.8327 6.10312C21.8327 6.10312 21.7727 6.10312 21.7727 6.16316V6.22319C21.7126 6.28323 21.7126 6.28323 21.6526 6.28323C21.5926 6.28323 21.5325 6.34327 21.4725 6.34327C21.4725 6.34327 21.4125 6.34327 21.4125 6.4033C21.3524 6.4033 21.2924 6.46334 21.2924 6.46334C21.2924 6.46334 21.2924 6.46334 21.2324 6.46334C21.2324 6.46334 21.1723 6.46334 21.1723 6.52338C21.1123 6.52338 21.1123 6.58341 21.0522 6.58341C21.0522 6.58341 21.0522 6.58341 20.9922 6.58341C20.9322 6.58341 20.8721 6.64345 20.8721 6.64345C20.8121 6.64345 20.7521 6.70349 20.692 6.70349C20.632 6.70349 20.572 6.76352 20.5119 6.76352H20.4519H20.3918C20.3318 6.76352 20.3318 6.82356 20.2718 6.82356C20.2117 6.82356 20.1517 6.88359 20.1517 6.88359C20.1517 6.88359 20.1517 6.88359 20.0917 6.88359C20.0316 6.88359 20.0316 6.94363 19.9716 6.94363C19.9116 6.94363 19.9116 7.00367 19.8515 7.00367H19.7915C19.7915 7.00367 19.7314 7.00367 19.7314 7.0637C19.6714 7.0637 19.6114 7.12374 19.5513 7.12374C19.4913 7.12374 19.4913 7.18378 19.4313 7.18378C19.4313 7.18378 19.4313 7.18378 19.3712 7.18378C19.3112 7.18378 19.2512 7.24381 19.2512 7.24381C19.1911 7.24381 19.1911 7.30385 19.1311 7.30385C19.071 7.30385 19.071 7.36389 19.011 7.36389L18.951 7.42392C18.951 7.42392 18.951 7.42392 18.8909 7.42392C18.8909 7.42392 18.8909 7.42392 18.8309 7.42392C18.8309 7.42392 18.8309 7.42392 18.7709 7.42392C18.7108 7.48396 18.5908 7.48396 18.5307 7.54399H18.4707L18.4106 7.60403C18.4106 7.60403 18.4106 7.60403 18.3506 7.60403C18.3506 7.60403 18.2906 7.60403 18.2906 7.66407H18.2305C18.1705 7.66407 18.1105 7.7241 18.1105 7.7241C18.1105 7.7241 18.0504 7.7241 18.0504 7.78414C17.9904 7.78414 17.9304 7.84418 17.9304 7.84418H17.8703C17.8103 7.84418 17.7502 7.90421 17.7502 7.90421C17.7502 7.90421 17.6902 7.90421 17.6902 7.96425C17.6302 7.96425 17.6302 8.02429 17.5701 8.02429H17.5101C17.4501 8.02429 17.4501 8.08432 17.39 8.08432C17.33 8.08432 17.33 8.14436 17.27 8.14436C17.2099 8.14436 17.2099 8.20439 17.1499 8.20439C17.0898 8.20439 17.0898 8.26443 17.0298 8.26443C17.0298 8.26443 17.0298 8.26443 16.9698 8.26443H16.9097C16.8497 8.26443 16.8497 8.32447 16.7897 8.32447H16.7296C16.6096 8.32447 16.4895 8.32447 16.4294 8.32447C16.3694 8.32447 16.3094 8.32447 16.2493 8.32447C16.1893 8.32447 16.1293 8.32447 16.1293 8.32447C15.9492 8.32447 15.769 8.32447 15.5889 8.32447C15.5289 8.3845 15.4689 8.32447 15.4689 8.32447C15.4088 8.32447 15.3488 8.32447 15.2888 8.32447C15.2287 8.32447 15.1687 8.32447 15.1086 8.32447C15.0486 8.32447 15.0486 8.32447 14.9886 8.32447C14.9285 8.26443 14.8085 8.32447 14.7484 8.32447C14.6284 8.32447 14.5083 8.32447 14.3882 8.32447C14.3282 8.32447 14.2081 8.32447 14.1481 8.32447C14.088 8.32447 14.028 8.32447 14.028 8.3845C13.9079 8.44454 13.7278 8.50458 13.6077 8.62465C13.5477 8.62465 13.4877 8.68469 13.4877 8.68469C13.3676 8.74472 13.2475 8.80476 13.1875 8.8648H13.1274C13.0074 8.92483 12.9473 8.98487 12.8273 8.98487C12.7072 9.0449 12.5871 9.16498 12.5271 9.28505C12.407 9.5252 12.2269 9.7053 12.1068 9.94545C12.1068 9.94545 12.1068 9.94545 12.0468 10.0055C12.0468 10.0055 12.0468 10.0055 11.9867 10.0655C11.9867 10.1256 11.9267 10.1256 11.9267 10.1856C11.7466 10.4257 11.6265 10.6059 11.4464 10.846C11.3864 10.906 11.3864 11.0261 11.3263 11.0861C11.2063 11.2663 11.0862 11.4464 10.9661 11.6265C10.9661 11.6865 10.9061 11.6865 10.9661 11.7465V11.8066V11.8666C10.9661 11.8666 11.0262 11.9267 10.9661 11.9267C10.9661 11.9867 10.8461 12.0467 10.786 12.0467C10.726 12.1068 10.6059 12.1068 10.5459 12.1668H10.4858C10.4258 12.1668 10.3658 12.2268 10.3057 12.2268C10.2457 12.2268 10.2457 12.2869 10.1857 12.2869C10.1857 12.2869 10.1256 12.2869 10.1256 12.3469H10.0656C10.0656 12.3469 10.0055 12.3469 10.0055 12.4069C9.94551 12.4069 9.94551 12.467 9.88548 12.467C9.88548 12.467 9.88548 12.467 9.82544 12.467H9.7654C9.70537 12.527 9.64533 12.527 9.58529 12.5871C9.52526 12.5871 9.46522 12.6471 9.40518 12.6471C9.40518 12.6471 9.34515 12.6471 9.34515 12.7071C9.28511 12.7071 9.22507 12.7672 9.22507 12.7672C9.16504 12.7672 9.105 12.8272 9.105 12.8272C9.04497 12.8272 9.04497 12.8872 8.98493 12.8872H8.92489C8.92489 12.8872 8.86486 12.8872 8.86486 12.9473C8.80482 12.9473 8.80482 13.0073 8.74478 13.0073C8.68475 13.0073 8.68475 13.0673 8.62471 13.0673C8.62471 13.0673 8.56467 13.0673 8.56467 13.1274C8.50464 13.1274 8.4446 13.1874 8.4446 13.1874C8.38457 13.2475 8.32453 13.2475 8.20446 13.3075C8.14442 13.3075 8.08438 13.3675 8.08438 13.3675C8.02435 13.3675 8.02435 13.4276 7.96431 13.4276C7.90427 13.4276 7.90427 13.4876 7.84424 13.4876C7.7842 13.4876 7.7842 13.5476 7.72417 13.5476C7.72417 13.5476 7.72417 13.5476 7.66413 13.5476C7.66413 13.5476 7.66413 13.5476 7.60409 13.5476C7.54406 13.6077 7.42398 13.6677 7.30391 13.7277C7.30391 13.7277 7.30391 13.7277 7.24387 13.7277C7.18384 13.7277 7.1238 13.7878 7.1238 13.7277C7.06377 13.7277 7.06377 13.7277 7.00373 13.7878C6.64351 13.1874 6.22326 12.5871 5.86304 11.9867C6.10318 11.6265 6.40336 11.2062 6.64351 10.846C6.70355 10.906 6.76358 10.906 6.82362 10.846C6.88366 10.786 6.88366 10.7259 6.88366 10.6659H6.82362C6.88366 10.6059 6.88366 10.5458 6.94369 10.4858C6.94369 10.4858 6.94369 10.4858 7.00373 10.4858C7.00373 10.4858 7.00373 10.4858 7.00373 10.4257C7.00373 10.3657 7.06376 10.3657 7.06376 10.3057H7.00373C7.00373 10.2456 7.00373 10.1856 6.94369 10.1256C7.06376 9.88541 7.24387 9.7053 7.36395 9.46516C7.42398 9.40512 7.54406 9.34509 7.60409 9.28505C7.66413 9.28505 7.72417 9.28505 7.72417 9.22501C8.08438 8.68469 8.4446 8.14436 8.86486 7.54399C8.98493 7.48396 9.105 7.42392 9.28511 7.36389C10.726 7.0637 11.9267 6.46334 13.1274 5.86298ZM12.9473 6.10312C13.0074 6.16316 12.9473 6.16316 12.9473 6.10312C13.0674 6.16316 13.0674 6.04309 13.0674 5.98305C13.0674 6.04309 13.0074 6.04308 12.9473 6.10312ZM15.4088 6.10312C15.3488 6.10312 15.3488 6.16316 15.3488 6.16316C15.4088 6.22319 15.4088 6.16316 15.4088 6.10312ZM12.1068 6.4033C12.1068 6.46334 12.0468 6.46334 12.1068 6.4033ZM13.2475 6.76352C13.1875 6.82356 13.1274 6.88359 13.1274 6.94363C13.1274 7.00367 13.2475 7.00367 13.3075 6.94363C13.3676 6.88359 13.4276 6.82356 13.4877 6.70349H13.4276C13.4276 6.70349 13.4276 6.70349 13.4877 6.64345H13.5477V6.58341C13.3676 6.70349 13.3075 6.70349 13.2475 6.76352ZM15.2287 6.94363C15.3488 6.94363 15.4088 6.88359 15.4088 6.82356C15.3488 6.82356 15.2887 6.82356 15.2287 6.94363ZM16.6095 6.94363L16.6696 6.88359C16.6096 6.82356 16.5495 6.88359 16.6095 6.94363ZM12.2869 6.94363C12.2869 6.94363 12.2269 7.00367 12.2869 7.00367C12.347 7.00367 12.347 6.94363 12.2869 6.94363ZM13.4276 7.00367C13.3676 7.00367 13.3676 7.0637 13.3075 7.12374C13.3075 7.12374 13.3075 7.18378 13.3676 7.18378C13.4276 7.12374 13.4276 7.0637 13.4276 7.00367C13.5477 6.94363 13.4877 7.00367 13.4276 7.00367ZM13.5477 7.0637C13.4877 7.12374 13.4877 7.12374 13.4877 7.18378C13.5477 7.18378 13.6077 7.18378 13.6678 7.12374C13.7278 7.0637 13.7278 7.00367 13.7278 7.00367C13.6678 7.00367 13.6077 7.00367 13.5477 7.0637ZM16.3094 7.0637C16.2493 7.12374 16.2493 7.0637 16.3094 7.0637C16.3694 7.0637 16.3094 7.12374 16.3094 7.0637ZM10.8461 7.18378C10.8461 7.18378 10.9061 7.18378 10.9061 7.12374V7.0637C10.8461 7.12374 10.786 7.18378 10.8461 7.18378ZM13.9079 7.12374C13.8479 7.12374 13.8479 7.18378 13.8479 7.18378C13.8479 7.18378 13.8479 7.24381 13.9079 7.18378C13.9679 7.18378 13.9679 7.12374 13.9079 7.12374ZM12.0468 7.30385C12.0468 7.24381 12.0468 7.24381 12.0468 7.30385ZM10.3658 7.30385C10.4258 7.30385 10.4258 7.30385 10.3658 7.30385ZM12.5271 7.42392C12.5871 7.42392 12.5871 7.42392 12.5271 7.42392C12.5871 7.36389 12.5271 7.36389 12.5271 7.36389C12.5871 7.36389 12.5271 7.42392 12.5271 7.42392ZM10.3658 7.54399C10.4258 7.54399 10.4258 7.48396 10.4258 7.42392C10.3658 7.48396 10.3658 7.48396 10.3658 7.54399ZM12.9473 7.60403C12.8873 7.60403 12.8873 7.66407 12.9473 7.66407C13.0074 7.66407 13.0074 7.60403 13.0074 7.54399C13.0074 7.54399 12.9473 7.54399 12.9473 7.60403ZM14.7484 7.7241C14.8085 7.7241 14.8085 7.66407 14.8685 7.66407C14.8085 7.66407 14.7484 7.7241 14.7484 7.7241ZM13.7278 7.7241C13.7878 7.7241 13.7878 7.66407 13.7278 7.7241ZM16.1293 7.78414C16.1893 7.78414 16.1893 7.7241 16.1893 7.7241C16.1893 7.7241 16.1293 7.7241 16.1293 7.78414ZM11.8667 7.78414C11.9267 7.78414 11.8667 7.7241 11.8667 7.78414ZM14.088 7.90421C14.1481 7.96425 14.088 7.96425 14.088 7.90421C14.2081 7.96425 14.1481 7.90421 14.088 7.90421ZM12.0468 8.08432C12.0468 8.14436 12.1068 8.14436 12.1068 8.08432C12.1068 8.08432 12.1669 8.02429 12.1669 7.96425C12.1068 7.96425 12.1068 8.02429 12.0468 8.08432ZM10.2457 8.08432C10.2457 8.08432 10.2457 8.14436 10.3057 8.14436C10.3658 8.14436 10.4258 8.02429 10.3658 7.96425C10.3057 8.02429 10.2457 8.08432 10.2457 8.08432ZM13.6077 8.14436C13.6678 8.14436 13.7278 8.08432 13.7278 8.02429C13.6678 8.02429 13.5477 8.02429 13.6077 8.14436ZM9.70537 8.32447C9.64533 8.3845 9.64533 8.44454 9.58529 8.44454V8.3845C9.58529 8.44454 9.52526 8.44454 9.46522 8.44454C9.46522 8.44454 9.46522 8.44454 9.40518 8.44454C9.34515 8.50458 9.34515 8.50458 9.28511 8.50458C9.22508 8.56461 9.22507 8.56461 9.22507 8.62465C9.16504 8.68469 9.22508 8.80476 9.28511 8.8648C9.40518 8.8648 9.46522 8.74472 9.52526 8.68469V8.62465C9.52526 8.62465 9.52526 8.62465 9.52526 8.56461V8.50458H9.58529V8.44454C9.64533 8.3845 9.64533 8.3845 9.70537 8.32447C9.64533 8.3845 9.64533 8.3845 9.58529 8.3845C9.58529 8.32447 9.58529 8.32447 9.58529 8.26443C9.70537 8.3845 9.70537 8.3845 9.70537 8.32447C9.7654 8.26443 9.7654 8.26443 9.7654 8.26443C9.70537 8.26443 9.70537 8.32447 9.70537 8.32447ZM11.0862 8.32447C11.1462 8.32447 11.1462 8.26443 11.0862 8.32447C11.1462 8.26443 11.0862 8.26443 11.0862 8.32447ZM12.2269 8.3845C12.2869 8.3845 12.2869 8.3845 12.347 8.32447C12.2869 8.32447 12.2869 8.32447 12.2269 8.3845ZM11.0862 8.3845C11.0862 8.32447 11.0262 8.3845 11.0862 8.3845ZM10.6659 8.68469C10.726 8.68469 10.726 8.62465 10.726 8.62465C10.6659 8.62465 10.6059 8.68469 10.6659 8.68469ZM10.0656 8.92483C10.0055 8.92483 10.0055 8.98487 10.0055 9.0449C10.0055 9.10494 9.94551 9.10494 10.0055 9.16498H10.0656C10.1256 9.10494 10.1857 9.10494 10.1857 9.0449C10.1857 8.98487 10.2457 8.92483 10.2457 8.8648C10.1857 8.8648 10.1256 8.92483 10.0656 8.92483ZM12.347 8.92483C12.2869 8.92483 12.2269 8.98487 12.1669 9.10494C12.1669 9.16498 12.2269 9.16498 12.2269 9.16498C12.2869 9.0449 12.347 8.98487 12.347 8.92483ZM9.04497 8.8648L8.98493 8.92483C9.04497 8.98487 9.105 8.92483 9.04497 8.8648C9.105 8.92483 9.04497 8.92483 9.04497 8.8648ZM9.22507 9.0449C9.22507 9.10494 9.22507 9.10494 9.22507 9.0449ZM10.2457 9.28505C10.2457 9.34509 10.3057 9.28505 10.3057 9.28505C10.3658 9.22501 10.3658 9.22501 10.3658 9.16498C10.3658 9.16498 10.2457 9.22501 10.2457 9.28505ZM9.40518 9.40512C9.46522 9.40512 9.40518 9.46516 9.40518 9.40512ZM9.105 9.46516C9.16504 9.46516 9.16504 9.46516 9.105 9.46516ZM11.1462 9.5252L11.2063 9.46516C11.1462 9.46516 11.0862 9.5252 11.1462 9.5252ZM11.7466 9.58523C11.6866 9.64527 11.5665 9.7053 11.5665 9.76534C11.5665 9.82538 11.6265 9.82538 11.6265 9.82538C11.7466 9.82538 11.8066 9.7053 11.8066 9.64527C11.8066 9.58523 11.8667 9.5252 11.8667 9.46516C11.8066 9.5252 11.8066 9.58523 11.7466 9.58523ZM9.40518 9.58523C9.40518 9.58523 9.46522 9.58523 9.52526 9.58523C9.52526 9.58523 9.52526 9.5252 9.46522 9.5252C9.40518 9.5252 9.40518 9.58523 9.40518 9.58523ZM8.98493 9.7053L9.04497 9.64527C8.98493 9.64527 8.98493 9.7053 8.98493 9.7053ZM7.90427 9.82538C7.96431 9.82538 8.02435 9.76534 8.02435 9.7053C7.96431 9.7053 7.84424 9.76534 7.90427 9.82538ZM9.94551 9.94545C9.94551 9.94545 10.0055 9.88541 10.0055 9.82538C9.94551 9.88541 9.88548 9.94545 9.94551 9.94545ZM10.4258 9.88541C10.4258 9.94545 10.4258 9.94545 10.4258 9.88541C10.4858 9.94545 10.4858 9.88541 10.4258 9.88541ZM7.84424 9.94545C7.84424 9.94545 7.7842 10.0055 7.84424 10.0055C7.90427 10.0055 7.90427 9.94545 7.84424 9.94545ZM11.8066 10.0655C11.8066 10.0655 11.7466 10.1256 11.8066 10.1856C11.8667 10.1856 11.8667 10.1256 11.9267 10.1256C12.0468 10.1256 12.0468 10.0655 12.1068 10.0055C11.9867 9.94545 11.9267 9.94545 11.8066 10.0655ZM10.8461 10.2456C10.8461 10.3057 10.9061 10.3057 10.9061 10.3057C11.0262 10.2456 11.0262 10.1256 11.0262 10.0655C10.9661 10.0655 10.8461 10.1256 10.8461 10.2456ZM9.34515 10.2456C9.40518 10.3057 9.34515 10.3057 9.34515 10.2456C9.46522 10.2456 9.46522 10.1856 9.46522 10.1256C9.40518 10.1856 9.34515 10.1856 9.34515 10.2456ZM8.08438 10.3657C8.14442 10.3657 8.14442 10.3057 8.14442 10.3057C8.14442 10.2456 8.08438 10.3657 8.08438 10.3657ZM8.56467 10.3057C8.50464 10.3057 8.50464 10.3657 8.56467 10.3657C8.62471 10.3657 8.62471 10.3657 8.56467 10.3057C8.62471 10.3057 8.62471 10.3057 8.56467 10.3057ZM11.1462 10.3657C11.1462 10.3657 11.2063 10.3057 11.1462 10.3057V10.3657ZM7.54406 10.3057C7.54406 10.3657 7.48402 10.3657 7.54406 10.3057C7.60409 10.3657 7.60409 10.3057 7.54406 10.3057ZM7.72417 10.3657C7.72417 10.3657 7.66413 10.4257 7.72417 10.4257C7.72417 10.4858 7.7842 10.4257 7.72417 10.3657ZM11.2663 10.4257C11.2063 10.4858 11.0862 10.4858 11.0862 10.5458C11.0262 10.6059 11.0262 10.6659 11.0862 10.6659C11.2063 10.6659 11.2663 10.6059 11.2663 10.4858C11.2663 10.4858 11.3263 10.4257 11.2663 10.4257ZM11.8066 10.4257C11.8066 10.4858 11.7466 10.4257 11.8066 10.4257C11.8667 10.4257 11.8066 10.3657 11.8066 10.4257ZM7.60409 10.4257C7.60409 10.4257 7.60409 10.4858 7.60409 10.5458C7.54406 10.6059 7.48402 10.6659 7.48402 10.7259C7.48402 10.786 7.60409 10.7259 7.60409 10.7259C7.66413 10.6059 7.66413 10.4858 7.60409 10.4257ZM8.68475 10.4858C8.68475 10.5458 8.62471 10.4858 8.68475 10.4858C8.74478 10.4858 8.68475 10.4257 8.68475 10.4858ZM8.62471 10.786C8.62471 10.846 8.68475 10.846 8.68475 10.846C8.74478 10.846 8.80482 10.786 8.80482 10.7259C8.80482 10.6659 8.80482 10.6059 8.80482 10.6059C8.74478 10.6059 8.62471 10.6659 8.62471 10.786ZM7.72417 10.6659C7.7842 10.6659 7.7842 10.6659 7.72417 10.6659ZM10.5459 10.786C10.5459 10.846 10.6059 10.846 10.6059 10.846C10.6659 10.786 10.726 10.7259 10.726 10.6059C10.6659 10.6659 10.6059 10.7259 10.5459 10.786ZM8.86486 10.786C8.86486 10.846 8.92489 10.846 8.92489 10.786C8.98493 10.786 8.98493 10.6659 8.98493 10.6659C8.98493 10.7259 8.86486 10.7259 8.86486 10.786ZM11.4464 10.7259C11.3864 10.786 11.3864 10.7259 11.4464 10.7259ZM7.60409 10.786C7.60409 10.846 7.60409 10.846 7.60409 10.786C7.66413 10.846 7.66413 10.786 7.60409 10.786ZM7.24387 10.906C7.30391 10.906 7.30391 10.906 7.30391 10.846C7.30391 10.846 7.24387 10.846 7.24387 10.906ZM8.62471 10.9661C8.68475 11.0261 8.74478 10.906 8.74478 10.846C8.68475 10.906 8.56467 10.906 8.62471 10.9661ZM7.42398 10.906C7.42398 10.9661 7.42398 10.9661 7.42398 10.906ZM8.98493 10.906C8.98493 10.9661 8.98493 10.9661 8.98493 10.906ZM9.82544 11.0261C9.7654 11.0861 9.7654 11.1462 9.82544 11.1462C9.88548 11.2062 9.94551 11.1462 10.0055 11.0861C10.0055 11.0861 10.0656 11.1462 10.0656 11.0861V11.0261H10.0055C10.0055 10.9661 10.0055 10.906 10.0656 10.846C9.94551 10.906 9.88548 10.9661 9.82544 11.0261ZM11.2663 11.0261C11.2663 11.0861 11.2663 11.0861 11.3263 11.0861C11.3864 11.0861 11.4464 10.9661 11.4464 10.906C11.4464 10.906 11.3263 10.9661 11.2663 11.0261ZM10.6659 10.906C10.6059 10.9661 10.4858 10.9661 10.4858 11.0861C10.4858 11.1462 10.5459 11.1462 10.6059 11.1462C10.6659 11.0861 10.726 11.0261 10.6659 10.906C10.726 10.9661 10.726 10.906 10.6659 10.906ZM8.26449 11.2062C8.20446 11.2663 8.20446 11.3863 8.26449 11.3863C8.32453 11.4464 8.4446 11.3863 8.50464 11.2663C8.56467 11.2062 8.56467 11.0861 8.56467 10.9661C8.38457 11.0261 8.32453 11.0861 8.26449 11.2062ZM8.74478 11.0861C8.68475 11.0861 8.62471 11.1462 8.62471 11.1462C8.56467 11.2062 8.56467 11.2663 8.62471 11.2663C8.74478 11.3263 8.80482 11.1462 8.74478 11.0861ZM9.88548 11.3863C9.82544 11.4464 9.7654 11.4464 9.70537 11.5064C9.70537 11.5664 9.64533 11.5664 9.70537 11.6265C9.7654 11.6865 9.82544 11.6265 9.88548 11.6265C9.94551 11.5664 9.94551 11.4464 10.0055 11.3863C10.0656 11.3263 10.1256 11.2663 10.1256 11.1462C10.0055 11.1462 9.88548 11.2663 9.88548 11.3863ZM9.64533 11.2663C9.64533 11.2663 9.58529 11.3263 9.64533 11.3863H9.70537C9.7654 11.3263 9.7654 11.2663 9.7654 11.2062C9.70537 11.2062 9.64533 11.2062 9.64533 11.2663ZM8.92489 11.3263C8.92489 11.3263 8.98493 11.3863 8.98493 11.3263C9.04497 11.3263 9.04497 11.2663 9.04497 11.2062C8.98493 11.2062 8.92489 11.2663 8.92489 11.3263ZM6.82362 11.4464C6.82362 11.5064 6.82362 11.5064 6.88366 11.5064C7.00373 11.5064 7.00373 11.3863 7.00373 11.2663C6.94369 11.3263 6.82362 11.3863 6.82362 11.4464ZM7.36395 11.3263C7.30391 11.3263 7.30391 11.4464 7.36395 11.4464C7.42398 11.4464 7.42398 11.3863 7.36395 11.3263C7.42398 11.3263 7.42398 11.3263 7.36395 11.3263ZM9.40518 11.3863C9.34515 11.4464 9.34515 11.5064 9.34515 11.5664C9.40518 11.6265 9.46522 11.5664 9.52526 11.5064C9.58529 11.4464 9.64533 11.3863 9.64533 11.2663C9.52526 11.3263 9.46522 11.3263 9.40518 11.3863ZM8.86486 11.5064C8.86486 11.5664 8.86486 11.6265 8.92489 11.6265C8.98493 11.6265 9.04497 11.5064 9.04497 11.4464C8.98493 11.3863 8.92489 11.4464 8.86486 11.5064ZM7.00373 11.5664V11.6265C7.06377 11.6265 7.1238 11.5664 7.06376 11.5064C7.06376 11.5064 7.06377 11.5064 7.00373 11.5664ZM8.56467 11.5664C8.62471 11.6265 8.56467 11.6265 8.56467 11.5664C8.68475 11.5664 8.68475 11.5064 8.68475 11.5064C8.68475 11.5064 8.62471 11.5064 8.56467 11.5664ZM7.42398 11.6265C7.42398 11.6865 7.42398 11.6865 7.48402 11.6865C7.54406 11.6265 7.54406 11.5664 7.54406 11.5064C7.54406 11.5664 7.48402 11.5664 7.42398 11.6265ZM6.64351 11.6265C6.70355 11.6865 6.64351 11.6865 6.64351 11.6265C6.70355 11.6865 6.70355 11.6265 6.64351 11.6265ZM6.94369 11.6265C7.00373 11.7465 6.94369 11.6865 6.94369 11.6265C7.06376 11.6865 7.00373 11.6265 6.94369 11.6265ZM6.88366 11.6865C6.88366 11.6865 6.82362 11.7465 6.88366 11.7465C6.88366 11.8066 6.94369 11.7465 6.88366 11.6865ZM10.3057 11.6865C10.3658 11.7465 10.3057 11.7465 10.3057 11.6865C10.3658 11.7465 10.3658 11.6865 10.3057 11.6865ZM7.7842 11.8666C7.84424 11.8666 7.90427 11.8066 7.84424 11.7465C7.7842 11.8066 7.72417 11.8666 7.7842 11.8666ZM10.0656 11.8066C10.1256 11.8666 10.0656 11.8666 10.0656 11.8066C10.1256 11.8066 10.1857 11.8066 10.1857 11.7465C10.1256 11.7465 10.1256 11.8066 10.0656 11.8066ZM9.82544 11.8666C9.7654 11.8666 9.70537 11.9267 9.7654 11.9867C9.82544 11.9867 9.88548 11.8066 9.82544 11.8666ZM6.4634 11.9867C6.4634 12.0467 6.4634 12.0467 6.52344 12.1068C6.58347 12.1068 6.58347 12.0467 6.58347 12.0467C6.58347 11.9867 6.58347 11.9867 6.58347 11.9267C6.52344 11.9267 6.4634 11.9267 6.4634 11.9867ZM9.22507 12.1068C9.34515 12.1068 9.34515 12.0467 9.34515 11.9267C9.28511 11.9267 9.16504 11.9867 9.22507 12.1068ZM8.02435 12.1068C7.90427 12.1068 7.7842 12.2268 7.7842 12.3469C7.7842 12.4069 7.84424 12.467 7.90427 12.4069C8.02435 12.4069 8.08438 12.2869 8.08438 12.1668C8.14442 12.1668 8.20446 12.1668 8.20446 12.1068C8.20446 12.0467 8.20446 11.9867 8.20446 11.9267C8.08438 11.9867 8.02435 12.0467 8.02435 12.1068ZM7.00373 12.0467C6.94369 12.1068 6.94369 12.1668 6.94369 12.2268C7.00373 12.2268 7.00373 12.2268 7.06376 12.2268H7.1238C7.1238 12.1668 7.18384 12.1068 7.18384 12.0467C7.1238 11.9867 7.06377 12.0467 7.00373 12.0467ZM10.0656 12.0467C10.0055 12.0467 10.0055 12.1068 10.0656 12.1068C10.0656 12.1068 10.1256 12.0467 10.0656 12.0467ZM10.6059 12.1068C10.6059 12.0467 10.5459 12.1068 10.6059 12.1068ZM8.32453 12.2268C8.38457 12.2268 8.38457 12.1668 8.38457 12.1068C8.32453 12.1068 8.26449 12.1668 8.32453 12.2268ZM9.94551 12.1668C10.0055 12.1668 10.0055 12.1668 9.94551 12.1668ZM6.88366 12.2268C6.88366 12.1668 6.82362 12.1668 6.88366 12.2268ZM8.80482 12.2268C8.74478 12.2268 8.62471 12.3469 8.68475 12.4069C8.80482 12.467 8.86486 12.3469 8.86486 12.2268C8.86486 12.2268 8.80482 12.2268 8.80482 12.2268ZM7.54406 12.2869C7.48402 12.2869 7.42398 12.3469 7.36395 12.4069C7.30391 12.467 7.30391 12.527 7.30391 12.5871C7.24387 12.5871 7.24387 12.6471 7.18384 12.6471C7.1238 12.7071 7.1238 12.7672 7.18384 12.8272C7.24387 12.8272 7.30391 12.8272 7.36395 12.8272L7.42398 12.7672C7.48402 12.7672 7.60409 12.7071 7.66413 12.6471C7.72417 12.5871 7.72417 12.467 7.7842 12.3469H7.72417C7.60409 12.2869 7.54406 12.2869 7.54406 12.2869ZM6.88366 12.467C6.88366 12.527 6.88366 12.527 6.94369 12.5871C7.06376 12.5871 7.1238 12.467 7.1238 12.3469C7.1238 12.2869 7.06376 12.2869 7.06376 12.2869C6.94369 12.3469 6.88366 12.4069 6.88366 12.467ZM6.52344 12.527C6.4634 12.527 6.4634 12.5871 6.52344 12.5871C6.58347 12.5871 6.58347 12.467 6.52344 12.527ZM8.38457 12.5871C8.32453 12.5871 8.32453 12.6471 8.38457 12.7071C8.4446 12.7071 8.4446 12.5871 8.38457 12.5871ZM6.58347 12.7071C6.58347 12.7672 6.58347 12.8272 6.64351 12.7672C6.70355 12.7672 6.70355 12.7071 6.70355 12.6471C6.70355 12.5871 6.64351 12.6471 6.58347 12.7071ZM9.82544 12.6471C9.82544 12.7071 9.7654 12.6471 9.82544 12.6471ZM8.56467 12.7672C8.56467 12.8272 8.50464 12.7672 8.56467 12.7672C8.62471 12.7672 8.62471 12.7672 8.56467 12.7672ZM7.1238 12.8872C7.06377 12.8872 7.00373 12.9473 7.06376 13.0073C7.1238 13.0073 7.1238 13.0073 7.18384 12.9473C7.1238 12.9473 7.1238 12.8872 7.1238 12.8872ZM6.88366 13.1874C6.88366 13.1274 6.88366 13.1274 6.88366 13.1874H6.82362C6.88366 13.1874 6.88366 13.1874 6.88366 13.1874C6.94369 13.2475 7.00373 13.1274 7.00373 13.1274C6.94369 13.0673 6.88366 13.0673 6.88366 13.1874ZM8.68475 13.1874C8.74478 13.1874 8.74478 13.1274 8.68475 13.1874ZM8.38457 13.3675C8.4446 13.3675 8.4446 13.3675 8.38457 13.3675ZM7.60409 13.4276C7.54406 13.4876 7.48402 13.4876 7.48402 13.5476C7.54406 13.6077 7.60409 13.5476 7.60409 13.4876C7.54406 13.4276 7.60409 13.4276 7.60409 13.4276Z" fill="#D43D5D"/>
<path d="M17.2098 9.0449C18.8308 8.20439 20.5118 7.42391 22.1328 6.5834C22.1929 6.64344 22.2529 6.70348 22.2529 6.76351C22.3129 6.88359 22.373 7.00366 22.493 7.12373C22.6131 7.30384 22.6732 7.42391 22.7932 7.60402C22.8533 7.66406 22.9133 7.78413 22.9733 7.84417C23.0334 7.90421 22.9733 7.96424 22.9733 8.02428C22.9133 8.14435 22.7932 8.26442 22.7332 8.3845C22.6131 8.62464 22.433 8.80475 22.3129 9.0449C22.3129 9.10493 22.2529 9.10493 22.2529 9.16497C22.1929 9.28504 22.0728 9.40511 22.0128 9.58522V9.64526C22.0128 9.7053 22.0128 9.7053 22.0128 9.76533C22.0128 9.76533 22.0128 9.76533 22.0728 9.76533V9.82537C22.0728 9.82537 22.0728 9.82537 22.0728 9.88541V9.94544C22.0128 10.0655 21.8927 10.1856 21.8326 10.3057C21.7726 10.3657 21.7126 10.4858 21.6525 10.5458C21.5925 10.6058 21.4724 10.6659 21.4124 10.7259C21.4124 10.7259 21.4124 10.7259 21.3524 10.7259C21.3524 10.7259 21.3524 10.7259 21.2923 10.7259C21.2923 10.7259 21.2923 10.7259 21.2323 10.7259C21.1122 10.786 21.0522 10.906 20.9921 11.0261C20.9321 11.0861 20.8721 11.1462 20.8721 11.2662C20.8721 11.3263 20.812 11.3263 20.812 11.3863C20.812 11.4464 20.752 11.4464 20.752 11.5064C20.752 11.5664 20.692 11.5664 20.692 11.6265C20.692 11.6265 20.692 11.6865 20.6319 11.6865C20.6319 11.6865 20.6319 11.7465 20.5719 11.7465C20.5719 11.8066 20.5118 11.8066 20.5118 11.8666C20.5118 11.9266 20.4518 11.9266 20.4518 11.9867C20.3317 12.1668 20.2117 12.2869 20.0916 12.467C20.0316 12.527 19.9715 12.587 19.9115 12.587C19.8514 12.587 19.8514 12.6471 19.7914 12.6471C19.7314 12.6471 19.7314 12.7071 19.6713 12.7071C19.6713 12.7071 19.6113 12.7071 19.6113 12.7672C19.6113 12.7672 19.5513 12.7672 19.5513 12.8272C19.4312 12.8872 19.3111 12.9473 19.191 13.0073C19.191 13.0073 19.131 13.0073 19.131 13.0673C19.071 13.0673 19.071 13.1274 19.0109 13.1274C18.9509 13.1274 18.9509 13.1874 18.8909 13.1874C18.8909 13.1874 18.8308 13.1874 18.8308 13.2474H18.7708C18.7108 13.2474 18.6507 13.3075 18.6507 13.3075C18.5907 13.3075 18.5907 13.3675 18.5306 13.3675C18.5306 13.3675 18.5306 13.3675 18.4706 13.3675C18.4706 13.3675 18.4106 13.3675 18.4106 13.4276C18.3505 13.4276 18.3505 13.4276 18.2905 13.4876C18.2305 13.4876 18.2305 13.5476 18.1704 13.5476C18.1104 13.5476 18.1104 13.6077 18.0504 13.6077C17.9903 13.6677 17.9303 13.6677 17.8102 13.7277C17.7502 13.7277 17.6901 13.7878 17.6901 13.7878C17.6301 13.7878 17.5701 13.8478 17.5701 13.8478C17.51 13.8478 17.45 13.9078 17.45 13.9078C17.39 13.9679 17.3299 13.9679 17.2699 14.0279C17.2699 14.0279 17.2098 14.0279 17.2098 14.088C17.2098 14.088 17.1498 14.088 17.1498 14.148C17.1498 14.148 17.0898 14.148 17.0898 14.208C17.0297 14.208 16.9697 14.2681 16.9097 14.2681H16.8496H16.7896C16.7296 14.2681 16.6695 14.3281 16.6095 14.3281C16.6095 14.3281 16.6095 14.3281 16.5494 14.3281C16.4894 14.3281 16.4294 14.3881 16.3693 14.3881C16.3693 14.3881 16.3093 14.3881 16.3093 14.4482C16.3093 14.4482 16.3093 14.4482 16.2493 14.4482C16.1892 14.4482 16.1892 14.5082 16.1292 14.5082C16.1292 14.5082 16.0692 14.5082 16.0692 14.5682C16.0091 14.5682 15.9491 14.6283 15.9491 14.6283C15.889 14.6883 15.829 14.6883 15.769 14.7484C15.7089 14.7484 15.7089 14.8084 15.6489 14.8084C15.6489 14.8084 15.5889 14.8084 15.5889 14.8684C15.5889 14.8684 15.5889 14.8684 15.5288 14.8684C15.5288 14.8684 15.5288 14.8684 15.4688 14.8684C15.4688 14.8684 15.4088 14.8684 15.4088 14.9285C15.4088 14.9285 15.4088 14.9285 15.3487 14.9285C15.3487 14.9285 15.3487 14.9285 15.2887 14.9285C15.2887 14.9285 15.2286 14.9285 15.2286 14.9885C15.1686 15.0485 15.1086 15.0485 14.9885 15.1086C14.9885 15.1086 14.9885 15.1086 14.9285 15.1086C14.8684 15.1086 14.8684 15.1686 14.8084 15.1686C14.8084 15.1686 14.7484 15.1686 14.7484 15.2286C14.7484 15.2286 14.6883 15.2286 14.6883 15.2887H14.6283C14.5682 15.2887 14.5682 15.3487 14.5082 15.3487H14.4482C14.3881 15.3487 14.3281 15.4088 14.2681 15.4088H14.208C14.148 15.4088 14.148 15.4688 14.088 15.4688C14.0279 15.4688 13.9679 15.5288 13.9679 15.5288C13.9078 15.5288 13.9078 15.5889 13.8478 15.5889C13.7878 15.5889 13.7277 15.6489 13.6677 15.6489C13.6077 15.7089 13.5476 15.7089 13.4876 15.769C13.4276 15.769 13.3675 15.829 13.3675 15.829C13.3675 15.829 13.3075 15.829 13.3075 15.889H13.2474H13.1874C13.1274 15.889 13.1274 15.889 13.0673 15.889C12.2869 15.889 11.5664 15.889 10.786 15.889C10.7259 15.889 10.6058 15.889 10.5458 15.889C10.4858 15.889 10.4257 15.889 10.3657 15.889C10.1856 15.889 10.0055 15.889 9.76533 15.889C9.7053 15.889 9.64526 15.889 9.58523 15.9491C9.52519 15.9491 9.46515 16.0091 9.40512 16.0091C9.34508 16.0091 9.34508 16.0692 9.28504 16.0692H9.22501C9.16497 16.0692 9.16497 16.1292 9.10493 16.1292C9.10493 16.1292 9.0449 16.1292 9.0449 16.1892C9.0449 16.1892 9.0449 16.1892 8.98486 16.1892C8.98486 16.1892 8.98486 16.1892 8.92483 16.1892C8.86479 16.1892 8.86479 16.2493 8.80475 16.2493C8.74472 16.2493 8.74472 16.3093 8.68468 16.3093C8.68468 16.3093 8.68468 16.3093 8.62464 16.3093C8.56461 16.3093 8.50457 16.3693 8.50457 16.3693C8.44453 16.3693 8.3845 16.4294 8.32446 16.4294H8.26442H8.20439C8.20439 16.4294 8.14435 16.4294 8.14435 16.4894C8.14435 16.4894 8.14435 16.4894 8.08432 16.4894C8.02428 16.4894 7.96424 16.5494 7.90421 16.5494H7.84417C7.78413 16.6095 7.66406 16.6095 7.66406 16.7296C7.54399 16.9697 7.36388 17.1498 7.24381 17.39C7.24381 17.39 7.24381 17.45 7.18377 17.45C7.18377 17.45 7.18377 17.45 7.18377 17.51C7.0637 17.6301 7.00366 17.8102 6.88359 17.9303C6.82355 18.0504 6.70348 18.1704 6.64344 18.2905C6.58341 18.3505 6.58341 18.4106 6.52337 18.4706C6.46333 18.5306 6.46333 18.5907 6.4033 18.6507C6.4033 18.6507 6.4033 18.7108 6.34326 18.7108C6.16315 18.9509 6.04308 19.191 5.86297 19.3712C5.86297 19.4312 5.86297 19.4912 5.86297 19.5513C5.92301 19.6713 5.98304 19.7314 6.04308 19.8514C6.04308 19.9115 6.10312 19.9115 6.10312 19.9715C6.10312 20.0316 6.10312 20.0316 6.10312 20.0916C6.04308 20.1516 5.92301 20.2117 5.86297 20.2717C5.80293 20.2717 5.7429 20.3317 5.68286 20.3317C5.62282 20.3317 5.56279 20.3918 5.56279 20.3918C5.50275 20.3918 5.50275 20.4518 5.44271 20.4518C5.38268 20.4518 5.32264 20.5118 5.26261 20.5118C5.20257 20.5118 5.20257 20.5719 5.14253 20.5719C5.14253 20.5719 5.14253 20.5719 5.0825 20.5719C5.0825 20.5719 5.02246 20.5719 5.02246 20.6319C4.96242 20.6319 4.96242 20.692 4.90239 20.692C4.90239 20.692 4.84235 20.692 4.84235 20.752C4.78231 20.752 4.78231 20.812 4.72228 20.812C4.66224 20.812 4.60221 20.8721 4.54217 20.8721C4.48213 20.8721 4.4221 20.9321 4.36206 20.9321C4.36206 20.9321 4.30202 20.9321 4.30202 20.9921H4.24199H4.18195C4.12191 20.9921 4.12191 21.0522 4.06188 21.0522H4.00184C3.94181 21.0522 3.9418 21.1122 3.88177 21.1122C3.88177 21.1122 3.82173 21.1122 3.82173 21.1722C4.36206 21.1722 4.30202 21.1722 4.24199 21.1722C4.18195 21.1722 4.18195 21.2323 4.12191 21.2323H4.06188C4.06188 21.2323 4.00184 21.2323 4.00184 21.2923C4.00184 21.2923 3.9418 21.2923 3.9418 21.3524C3.88177 21.3524 3.82173 21.4124 3.82173 21.4124C3.82173 21.4124 3.7617 21.4124 3.7617 21.4724H3.70166H3.64162C3.64162 21.4724 3.58159 21.4724 3.58159 21.5325C3.52155 21.5325 3.46151 21.5925 3.46151 21.5925C3.46151 21.5925 3.40148 21.5925 3.40148 21.6525H3.34144C3.2814 21.6525 3.22137 21.7126 3.22137 21.7126C3.16133 21.7126 3.1013 21.7726 3.04126 21.7726C2.98122 21.7726 2.98122 21.8326 2.92119 21.8326C2.92119 21.8326 2.86115 21.8326 2.86115 21.8927C2.80111 21.8927 2.74108 21.9527 2.74108 21.9527C2.68104 21.9527 2.621 22.0128 2.621 22.0128C2.56097 22.0728 2.50093 22.0728 2.4409 22.1328C2.38086 22.1328 2.38086 22.1929 2.32082 22.1929C2.32082 22.1929 2.26079 22.1929 2.26079 22.2529C2.26079 22.2529 2.20075 22.2529 2.20075 22.3129C2.14071 22.3129 2.08068 22.3129 2.02064 22.3129C1.72046 21.8326 1.36024 21.2923 1.06006 20.812C1.42028 20.2717 1.7805 19.7314 2.14071 19.191H2.08068C2.08068 19.131 2.02064 19.071 2.02064 19.0109C2.14071 18.8308 2.26079 18.7108 2.38086 18.5306C2.4409 18.4706 2.50093 18.3505 2.56097 18.3505C2.50093 18.2305 2.56097 18.1704 2.68104 18.1704C2.74108 18.1104 2.74108 18.0504 2.80111 17.9903C2.80111 17.9903 2.80111 18.0504 2.86115 18.0504C2.92119 18.0504 2.98122 17.9303 2.92119 17.9303H2.86115C3.16133 17.45 3.52155 16.9697 3.82173 16.4894C3.88177 16.4294 3.88177 16.3693 3.9418 16.3693C4.12191 16.3093 4.30202 16.1892 4.48213 16.1292V16.1892C4.54217 16.2493 4.60221 16.2493 4.66224 16.2493V16.1892C4.66224 16.1292 4.66224 16.0692 4.60221 16.0692C4.90239 15.889 5.20257 15.769 5.50275 15.5889C5.92301 15.3487 6.4033 15.1686 6.82355 14.9285L6.88359 14.9885C6.94362 14.9885 6.94362 14.9285 6.94362 14.8684C7.42392 14.6283 7.90421 14.3881 8.44453 14.148C8.50457 14.148 8.56461 14.088 8.56461 14.088C8.62464 14.088 8.62464 14.0279 8.68468 14.0279C9.52519 13.6077 10.3057 13.1874 11.1462 12.8272C11.2062 12.8272 11.2662 12.7672 11.3263 12.7672C12.2869 12.7672 13.2474 12.7672 14.208 12.7672C14.3281 12.7071 14.5082 12.6471 14.6283 12.587C14.9885 12.4069 15.2887 12.2268 15.6489 12.0467C15.7089 12.0467 15.769 11.9266 15.769 11.8666C15.889 11.7465 15.9491 11.5664 16.0692 11.4464C16.1892 11.3863 16.2493 11.3263 16.3093 11.2062C16.3693 11.1462 16.4294 11.0861 16.4894 11.0261C16.4894 11.0261 16.4294 10.9661 16.4294 11.0261C16.3693 11.0861 16.3093 11.0861 16.2493 11.1462C16.2493 11.0861 16.3093 11.0261 16.3693 10.9661C16.6695 10.4858 17.0297 10.0055 17.3299 9.46515C17.3299 9.22501 17.2699 9.16497 17.2098 9.0449ZM20.8721 7.24381C20.9321 7.24381 20.9921 7.2438 20.9921 7.18377C20.9321 7.18377 20.8721 7.18377 20.8721 7.24381ZM20.2717 8.74471C20.2717 8.80475 20.2717 8.80475 20.2717 8.74471C20.3317 8.74471 20.3317 8.74471 20.2717 8.74471ZM17.9303 8.86479C17.9303 8.92482 17.8702 8.92482 17.9303 8.86479C17.9903 8.86479 17.9303 8.80475 17.9303 8.86479ZM18.8308 9.34508C18.8308 9.40511 18.7708 9.40511 18.8308 9.34508ZM18.7708 9.46515C18.7708 9.52519 18.7708 9.52519 18.7708 9.46515C18.8308 9.52519 18.8308 9.46515 18.7708 9.46515ZM18.0504 10.2456C17.9903 10.3057 17.9903 10.2456 18.0504 10.2456ZM17.3299 10.6659C17.2699 10.7259 17.1498 10.7259 17.0898 10.786C17.0297 10.786 17.0297 10.846 16.9697 10.906C16.9697 10.9661 17.0297 10.9661 17.0898 10.9661C17.2098 10.9661 17.2699 10.846 17.2699 10.786C17.2699 10.7259 17.39 10.7259 17.3299 10.6659C17.3299 10.6058 17.3299 10.6058 17.3299 10.6659ZM16.2493 11.3863C16.1292 11.3863 16.0091 11.4464 16.0091 11.5664C16.0091 11.6265 16.0692 11.6265 16.1292 11.6265C16.1892 11.5664 16.2493 11.5064 16.3093 11.4464C16.3093 11.4464 16.3693 11.3863 16.3093 11.3863C16.3093 11.3263 16.2493 11.3263 16.2493 11.3863ZM16.7296 11.7465C16.6695 11.7465 16.5494 11.8066 16.4894 11.8666C16.4894 11.9266 16.4894 11.9867 16.5494 11.9266C16.6695 11.9266 16.7296 11.8066 16.7896 11.7465C16.8496 11.6865 16.7896 11.7465 16.7296 11.7465ZM19.4912 11.9867C19.4912 12.0467 19.4912 12.0467 19.4912 11.9867C19.5513 11.9867 19.5513 11.9867 19.4912 11.9867ZM17.9903 12.1668C18.0504 12.2268 18.0504 12.1668 17.9903 12.1668ZM10.2456 13.3075C10.1856 13.3075 10.1856 13.3675 10.1856 13.4276C10.2456 13.4276 10.2456 13.3675 10.2456 13.3075C10.3057 13.3075 10.2456 13.2474 10.2456 13.3075ZM15.1686 13.3075C15.1686 13.3675 15.1686 13.3675 15.1686 13.3075C15.2286 13.4276 15.2286 13.3075 15.1686 13.3075ZM10.1256 13.6677L10.1856 13.6077C10.1256 13.5476 10.0655 13.6077 10.1256 13.6677ZM10.3057 14.088C10.3057 14.148 10.3657 14.088 10.3657 14.088C10.4257 14.088 10.3657 14.088 10.3057 14.088ZM8.56461 14.148C8.62464 14.208 8.62464 14.148 8.68468 14.088C8.62464 14.088 8.56461 14.088 8.56461 14.148ZM13.7277 14.088C13.7277 14.148 13.7277 14.148 13.7277 14.088C13.7878 14.148 13.7878 14.148 13.7277 14.088ZM11.6865 14.208C11.7465 14.208 11.6865 14.148 11.6865 14.208ZM8.56461 14.2681C8.56461 14.3281 8.62464 14.2681 8.62464 14.2681H8.56461ZM9.88541 14.3881C9.94544 14.3881 9.88541 14.4482 9.88541 14.3881ZM8.50457 14.6283C8.56461 14.6883 8.44453 14.6883 8.50457 14.6283ZM9.7053 14.6883C9.7053 14.8084 9.64526 14.6883 9.7053 14.6883ZM7.0637 14.9885C7.00366 14.9885 7.00366 15.0485 7.0637 15.0485C7.12373 15.0485 7.12373 14.9885 7.0637 14.9885ZM7.42392 15.0485C7.48395 15.0485 7.48395 15.0485 7.54399 15.0485C7.54399 15.0485 7.54399 14.9885 7.48395 14.9885C7.42392 14.9885 7.42392 15.0485 7.42392 15.0485ZM10.3057 15.1086C10.3057 15.1686 10.2456 15.1086 10.3057 15.1086ZM6.16315 15.2887C6.10311 15.2887 6.04308 15.2887 6.04308 15.3487C6.04308 15.4088 6.04308 15.4088 6.10312 15.4088C6.16315 15.3487 6.16315 15.2887 6.16315 15.2887C6.22319 15.2887 6.22319 15.2887 6.22319 15.2286C6.22319 15.2286 6.22319 15.2286 6.16315 15.2887ZM6.82355 15.3487C6.88359 15.3487 6.88359 15.2887 6.88359 15.2286C6.88359 15.2887 6.82355 15.2887 6.82355 15.3487ZM7.18377 15.3487C7.12373 15.3487 7.12373 15.4688 7.18377 15.4688C7.24381 15.4688 7.24381 15.4088 7.24381 15.4088C7.24381 15.3487 7.18377 15.3487 7.18377 15.3487ZM8.62464 15.5288C8.62464 15.5889 8.68468 15.5889 8.68468 15.5889C8.74472 15.5889 8.74472 15.5288 8.80475 15.4688C8.74472 15.4088 8.62464 15.4088 8.62464 15.5288ZM9.76533 15.5288C9.76533 15.4688 9.76533 15.4688 9.76533 15.5288ZM5.44271 15.7089L5.50275 15.769C5.56279 15.769 5.62282 15.7089 5.62282 15.6489C5.62282 15.6489 5.56279 15.6489 5.56279 15.5889C5.50275 15.6489 5.44271 15.6489 5.44271 15.7089ZM6.16315 15.6489C6.16315 15.7089 6.10311 15.6489 6.16315 15.6489C6.22319 15.6489 6.16315 15.5889 6.16315 15.6489ZM6.46333 15.6489C6.46333 15.769 6.4033 15.7089 6.46333 15.6489ZM8.56461 15.7089C8.62464 15.769 8.56461 15.769 8.56461 15.7089C8.62464 15.7089 8.62464 15.6489 8.56461 15.7089ZM5.68286 15.889C5.68286 15.9491 5.62282 15.9491 5.62282 16.0091C5.62282 16.0692 5.68286 16.1292 5.7429 16.1292C5.80293 16.1292 5.86297 16.1292 5.92301 16.0692V16.0091H5.98304C5.98304 15.9491 5.92301 15.889 5.98304 15.829C5.80293 15.889 5.7429 15.889 5.68286 15.889C5.7429 15.829 5.7429 15.829 5.7429 15.769C5.68286 15.769 5.68286 15.889 5.68286 15.889ZM5.92301 15.829C5.92301 15.889 5.92301 15.889 5.92301 15.829ZM5.56279 15.9491C5.50275 16.0091 5.50275 15.9491 5.56279 15.9491ZM7.54399 16.1292C7.54399 16.1292 7.54399 16.1892 7.60402 16.1892C7.60402 16.1892 7.66406 16.1892 7.66406 16.1292C7.66406 16.1292 7.60402 16.1292 7.54399 16.1292C7.60402 16.1292 7.60402 16.1292 7.54399 16.1292ZM5.38268 16.1892C5.38268 16.2493 5.32264 16.1892 5.38268 16.1892C5.44271 16.2493 5.44271 16.1892 5.44271 16.1292C5.44271 16.1892 5.38268 16.1892 5.38268 16.1892ZM5.0825 16.2493C5.02246 16.3093 5.02246 16.2493 5.0825 16.2493ZM5.7429 16.2493C5.7429 16.3093 5.7429 16.3093 5.7429 16.2493C5.80293 16.3093 5.7429 16.3693 5.7429 16.2493ZM5.0825 16.4294C5.0825 16.4894 5.14253 16.5494 5.14253 16.6095C5.20257 16.6095 5.20257 16.5494 5.20257 16.6095C5.26261 16.5494 5.26261 16.5494 5.26261 16.4894C5.26261 16.4294 5.20257 16.4294 5.14253 16.4294C5.14253 16.4294 5.14253 16.4294 5.0825 16.4894C5.14253 16.4294 5.14253 16.4294 5.0825 16.4294ZM5.20257 16.6695C5.26261 16.6695 5.26261 16.6095 5.20257 16.6695ZM4.84235 16.9697L4.90239 16.9097H4.84235C4.78231 16.9097 4.78231 16.9697 4.84235 16.9697ZM7.36388 16.9097C7.30384 16.9697 7.30384 16.9097 7.36388 16.9097ZM5.02246 16.9697C5.0825 17.0297 5.0825 16.9097 5.02246 16.9697ZM3.88177 17.0297C3.9418 17.0898 3.9418 17.0297 3.9418 17.0297C3.9418 16.9697 3.88177 16.9697 3.88177 17.0297ZM3.58159 17.0297C3.64162 17.0297 3.64162 17.0297 3.64162 16.9697C3.58159 17.0297 3.58159 17.0297 3.58159 17.0297ZM6.4033 17.0297C6.34326 17.0297 6.34326 17.0898 6.4033 17.1498C6.4033 17.1498 6.46333 17.0297 6.4033 17.0297ZM5.0825 17.2699C5.0825 17.3299 5.0825 17.3299 5.0825 17.2699ZM4.4221 17.3299C4.48213 17.39 4.48213 17.2699 4.4221 17.3299ZM3.58159 17.3299C3.52155 17.3299 3.58159 17.39 3.58159 17.45C3.58159 17.45 3.64162 17.45 3.58159 17.3299C3.64162 17.39 3.64162 17.3299 3.58159 17.3299ZM4.72228 17.39C4.72228 17.45 4.72228 17.45 4.72228 17.39C4.78231 17.45 4.78231 17.39 4.72228 17.39ZM3.40148 17.39C3.46151 17.45 3.40148 17.45 3.40148 17.39C3.46151 17.45 3.46151 17.39 3.40148 17.39ZM4.12191 17.51C4.12191 17.5701 4.18195 17.5701 4.18195 17.51C4.24199 17.45 4.18195 17.45 4.12191 17.51ZM3.9418 17.51C3.88177 17.51 3.94181 17.6301 4.00184 17.6301C4.06188 17.5701 4.00184 17.45 3.9418 17.51ZM4.30202 17.51C4.24199 17.51 4.24199 17.6301 4.30202 17.6301C4.36206 17.6301 4.4221 17.5701 4.4221 17.51C4.36206 17.51 4.30202 17.51 4.30202 17.51ZM3.58159 17.5701C3.52155 17.6901 3.52155 17.5701 3.58159 17.5701ZM3.7617 17.6301C3.82173 17.6901 3.7617 17.6901 3.7617 17.6301C3.82173 17.6301 3.82173 17.6301 3.7617 17.6301ZM6.10312 17.8102C6.04308 17.8702 6.04308 17.8102 6.10312 17.8102ZM3.88177 17.8102C3.88177 17.8702 3.88177 17.8702 3.88177 17.8102C3.9418 17.8102 3.9418 17.8102 3.88177 17.8102ZM5.26261 17.8702C5.26261 17.9303 5.20257 17.9303 5.26261 17.8702ZM4.66224 18.0504C4.72228 18.1104 4.66224 18.1104 4.66224 18.0504C4.78231 18.0504 4.72228 17.9903 4.66224 18.0504ZM4.96242 18.0504C5.02246 18.0504 5.02246 18.0504 4.96242 18.0504ZM4.18195 18.0504C4.12191 18.0504 4.12191 18.1104 4.12191 18.1704C4.18195 18.2305 4.30202 18.1704 4.24199 18.1104C4.24199 18.1104 4.24199 18.0504 4.18195 18.0504ZM5.38268 18.1104C5.44271 18.1104 5.44271 18.1104 5.38268 18.1104ZM4.90239 18.1704C4.96242 18.1704 4.96242 18.1104 4.90239 18.1704ZM5.26261 18.1104C5.26261 18.1704 5.26261 18.1704 5.26261 18.1104C5.32264 18.1104 5.32264 18.1104 5.26261 18.1104ZM4.36206 18.1704C4.36206 18.2305 4.36206 18.2305 4.36206 18.1704C4.4221 18.1704 4.4221 18.1704 4.36206 18.1704ZM5.68286 18.2305C5.68286 18.2905 5.62282 18.2905 5.68286 18.2305ZM5.98304 18.2905C5.92301 18.2905 5.92301 18.4106 5.98304 18.4106C6.04308 18.4706 6.10312 18.3505 6.10312 18.3505C6.04308 18.2905 6.04308 18.2305 5.98304 18.2905ZM3.52155 18.3505C3.52155 18.4106 3.52155 18.4106 3.52155 18.3505C3.58159 18.4106 3.58159 18.3505 3.52155 18.3505ZM4.00184 18.4106C4.06188 18.4106 4.00184 18.3505 4.00184 18.4106ZM5.38268 18.4106C5.38268 18.4706 5.38268 18.4706 5.38268 18.4106C5.44271 18.4106 5.44271 18.4106 5.38268 18.4106ZM4.12191 18.5306C4.12191 18.5907 4.18195 18.5306 4.24199 18.4706C4.24199 18.4706 4.24199 18.4106 4.18195 18.4106C4.18195 18.4706 4.12191 18.5306 4.12191 18.5306ZM2.50093 18.6507C2.4409 18.6507 2.4409 18.7708 2.50093 18.7708C2.56097 18.7708 2.621 18.7108 2.621 18.6507C2.621 18.6507 2.56097 18.5907 2.50093 18.6507ZM3.70166 18.7108C3.70166 18.8308 3.64162 18.7708 3.70166 18.7108ZM4.00184 18.7708C4.00184 18.8308 3.94181 18.7708 4.00184 18.7708C4.06188 18.8308 4.06188 18.7708 4.00184 18.7708ZM2.38086 18.8909C2.38086 18.9509 2.32082 18.9509 2.38086 18.8909ZM2.68104 18.9509V19.0109C2.68104 19.0109 2.74108 19.0109 2.74108 18.9509C2.74108 18.9509 2.74108 18.9509 2.68104 18.9509ZM3.46151 19.071C3.46151 19.131 3.46151 19.131 3.46151 19.071ZM3.7617 19.131C3.82173 19.131 3.82173 19.071 3.7617 19.131ZM4.24199 19.131C4.24199 19.191 4.18195 19.191 4.24199 19.131ZM2.38086 19.3111C2.38086 19.3712 2.38086 19.3712 2.38086 19.3111C2.4409 19.3111 2.4409 19.3111 2.38086 19.3111ZM2.26079 19.3712L2.32082 19.4312C2.32082 19.4312 2.32082 19.4312 2.38086 19.3712C2.32082 19.3712 2.32082 19.3712 2.26079 19.3712ZM5.38268 19.3712C5.38268 19.4312 5.32264 19.4312 5.38268 19.3712ZM2.14071 19.4912C2.26079 19.4912 2.20075 19.4312 2.14071 19.4912ZM1.9606 19.7314C2.02064 19.7314 2.02064 19.7314 1.9606 19.7314ZM2.4409 19.9715C2.4409 20.0316 2.38086 20.0316 2.4409 19.9715ZM1.72046 20.2117C1.7805 20.2117 1.7805 20.2117 1.72046 20.2117ZM1.7805 20.2717C1.72046 20.3317 1.72046 20.4518 1.7805 20.4518C1.84053 20.4518 1.90057 20.3918 1.90057 20.3317C1.90057 20.2717 1.84053 20.2717 1.7805 20.2717ZM1.9606 20.3317C1.9606 20.3918 1.90057 20.3317 1.9606 20.3317C2.02064 20.3317 2.02064 20.3317 1.9606 20.3317ZM2.08068 20.812L2.14071 20.8721C2.14071 20.8721 2.20075 20.8721 2.26079 20.8721C2.38086 20.8721 2.38086 20.692 2.26079 20.692C2.14071 20.6319 2.08068 20.692 2.08068 20.812ZM1.06006 20.812C1.06006 20.8721 1.12009 20.8721 1.12009 20.8721H1.18013C1.24017 20.8721 1.24017 20.752 1.18013 20.692C1.12009 20.692 1.06006 20.752 1.06006 20.812ZM3.04126 20.9321C2.98122 20.9321 2.92119 21.0522 2.92119 21.1122C2.92119 21.1722 2.92119 21.1722 2.92119 21.2323C2.98122 21.2923 3.1013 21.3524 3.22137 21.3524C3.34144 21.3524 3.40148 21.1722 3.40148 21.1122C3.34144 21.0522 3.2814 20.9921 3.22137 20.9321C3.16133 20.9321 3.1013 20.9321 3.04126 20.9321ZM1.36024 21.0522C1.36024 21.0522 1.42028 21.1122 1.42028 21.0522C1.42028 21.0522 1.42028 21.0522 1.36024 21.0522ZM2.14071 21.3524C2.14071 21.4124 2.14071 21.4124 2.14071 21.3524C2.20075 21.3524 2.20075 21.3524 2.14071 21.3524ZM1.54035 21.4124C1.48031 21.4124 1.48031 21.4724 1.54035 21.5325C1.54035 21.5925 1.60039 21.5925 1.66042 21.5325C1.66042 21.4124 1.60039 21.3524 1.54035 21.4124Z" fill="#D43D5D"/>
<path d="M15.5288 15.1686C15.8289 15.0485 16.1291 14.8684 16.4293 14.7484C16.4893 14.8684 16.6094 14.9285 16.6695 14.9885C16.9696 15.4688 17.3299 16.0091 17.63 16.4894C17.63 16.5494 17.63 16.5494 17.63 16.6095C17.57 16.7296 17.4499 16.8496 17.3899 16.9697C17.2098 17.2699 16.9696 17.5701 16.7895 17.8702C16.7295 17.9903 16.6094 18.1104 16.5494 18.2305C16.5494 18.2905 16.5494 18.2905 16.5494 18.3505L16.6094 18.4106C16.6094 18.4706 16.6094 18.5306 16.6094 18.5306C16.6094 18.5306 16.6094 18.5306 16.5494 18.5907C16.4293 18.7708 16.3092 19.0109 16.1291 19.191C16.0691 19.2511 15.949 19.3111 15.889 19.3712C15.889 19.3712 15.889 19.3712 15.8289 19.3712C15.7689 19.4312 15.7089 19.4312 15.6488 19.4912C15.3487 19.9715 15.0485 20.4518 14.6883 20.8721C14.6282 20.9321 14.5682 20.9921 14.5081 21.0522C14.4481 21.0522 14.4481 21.1122 14.3881 21.1122C14.328 21.1122 14.328 21.1722 14.268 21.1722C14.208 21.1722 14.208 21.2323 14.1479 21.2323C14.0879 21.2323 14.0279 21.2923 14.0279 21.2923H13.9678H13.9078C13.8477 21.3524 13.7877 21.3524 13.7277 21.4124C12.8271 21.8927 11.8665 22.3129 10.966 22.7932C10.906 22.7932 10.906 22.8533 10.8459 22.8533C10.7259 22.9133 10.6658 22.9733 10.5457 22.9733C10.4857 22.9733 10.4257 22.9733 10.3656 22.9733C7.72403 22.9733 5.14247 22.9733 2.50087 22.9733L2.44083 22.9133C2.38079 22.9133 2.38079 22.9133 2.32076 22.9133C2.26072 22.8533 2.26072 22.7932 2.20068 22.7332C3.82167 21.9527 5.38261 21.1122 7.00359 20.3317C7.06363 20.3317 7.12367 20.3317 7.12367 20.3317C7.66399 20.3317 8.26436 20.3317 8.80469 20.3317C8.9848 20.3317 9.22494 20.3317 9.40505 20.3317C9.70523 20.2117 9.94538 20.0316 10.2456 19.9115C10.5457 19.7314 10.906 19.6113 11.2061 19.4312C11.3862 19.131 11.5664 18.8909 11.8065 18.5907C12.0467 18.2905 12.2268 17.9303 12.4669 17.6301C12.5269 17.5701 12.5269 17.51 12.587 17.45C12.7671 17.2098 12.9472 16.9697 13.0673 16.7296C12.9472 16.5494 12.8872 16.4294 12.7671 16.2493C12.9472 16.2493 13.0673 16.2493 13.2474 16.2493C13.3074 16.2493 13.3675 16.2493 13.4275 16.2493C14.1479 15.889 14.8684 15.5288 15.5288 15.1686ZM7.24374 20.6319C7.30378 20.6319 7.30378 20.6319 7.24374 20.6319ZM11.1461 20.812C11.2061 20.812 11.1461 20.752 11.1461 20.812ZM6.10305 22.1929C6.16309 22.1929 6.10305 22.2529 6.10305 22.1929ZM10.1255 22.493C10.1255 22.493 10.0654 22.5531 10.1255 22.5531C10.1855 22.5531 10.1855 22.5531 10.2456 22.493C10.1855 22.493 10.1255 22.433 10.1255 22.493Z" fill="#D43D5D"/>
</svg>
