<svg width="48" height="48" viewBox="0 0 48 48" fill="none" xmlns="http://www.w3.org/2000/svg">
<g clip-path="url(#clip0_2053_18947)">
<path d="M48 13H36.0291C36.0291 13 39.3127 14.3095 37.3606 16.0928L30.6771 21.9169L30.9744 14.5963H17.2712C17.2712 14.5963 19.7921 15.5566 18.6027 16.7039C18.5123 16.7912 18.3959 16.8661 18.2925 16.9409L17.2195 17.5894L15.9914 14.5464H8.24778L11.2728 21.2559L0 28.2647H7.80824L13.0956 25.1219L14.5435 28.2647H18.8225L23.6316 25.3215L23.2567 34.6L48 13ZM19.9601 23.6628L18.9259 21.3931L23.8643 18.3875L23.6962 23.6628H19.9601V23.6628Z" fill="#D3D3D3"/>
<path d="M15.1252 21.019L13.3283 23.8L7.54969 27.4042L2.63722 27.3792L15.1252 21.019Z" fill="#C26200"/>
<path d="M19.1716 15.2323L30.0048 15.1949L27.4193 16.8162L25.2475 15.4693L21.5244 16.9658L19.1716 15.2323Z" fill="#D4AC60"/>
<path d="M9.43711 15.1949L13.3154 16.9658L15.2157 15.1949" fill="#DEB557"/>
<path d="M12.1519 21.2185L15.1252 21.0189L13.3154 16.9658L9.43711 15.1949" fill="#E5C88B"/>
<path d="M15.2157 15.1949L13.3154 16.9658L15.1252 21.0189L16.6765 18.5746L15.2157 15.1949Z" fill="#AE6400"/>
<path d="M15.1252 21.019L7.07137 26.182L2.63722 27.3792L2.55966 27.4042L12.1519 21.2185" fill="#D6A546"/>
<path d="M19.1716 15.2323C19.1716 15.2323 21.0461 15.5316 21.5244 16.9658L15.1252 21.0189L16.6765 18.5746L18.9906 17.0656C19.3008 16.866 19.5335 16.5667 19.624 16.2175C19.7145 15.8684 19.6628 15.4693 19.1716 15.2448V15.2323Z" fill="#CD9E49"/>
<path d="M14.9055 27.4042L17.3229 25.9575L18.4605 27.4042H14.9055Z" fill="#B86E0A"/>
<path d="M23.4506 24.3487L17.3229 25.9575L18.4605 27.4042L23.4506 24.3487Z" fill="#8D3800"/>
<path d="M17.3229 25.9575L15.1252 21.019L13.3283 23.8L14.9055 27.4042L17.3229 25.9575Z" fill="#E4C47E"/>
<path d="M23.4506 24.3487L17.3229 25.9575L19.3913 24.3487H23.4506Z" fill="#D9BC86"/>
<path d="M17.3229 25.9575L15.1252 21.0189L21.5244 16.9658L25.2475 15.4693L24.7304 16.7164L17.7754 20.8693L19.3913 24.3487L17.3229 25.9575Z" fill="#A15200"/>
<path d="M24.0065 32.5547L27.0703 27.8531L27.4193 16.8162L25.2475 15.4693L24.7304 16.7164L24.0065 32.5547Z" fill="#C69B54"/>
<path d="M30.0048 15.1949L27.4193 16.8162L27.0703 27.8531L29.7592 23.6628L30.0048 15.1949Z" fill="#7F3700"/>
<path d="M37.9165 13.6485C37.9165 13.6485 41.1355 14.3594 41.6138 15.1949L27.0703 27.8406L29.7463 23.6503L38.4853 16.0055C38.7697 15.7561 38.9249 15.3945 38.8861 15.0203C38.8602 14.7584 38.7697 14.4716 38.6275 14.2097C38.4724 13.9353 38.3431 13.7483 37.9036 13.6485H37.9165V13.6485Z" fill="#BF7A15"/>
<path d="M38.0587 13.6485H45.6472L41.6138 15.1949L39.0024 14.1473L38.0587 13.6485Z" fill="#DEB557"/>
<path d="M45.6472 13.6485L41.6138 15.1949L27.0703 27.8531L23.9418 32.5797L45.6472 13.6485Z" fill="#7C2600"/>
<path d="M7.54969 27.4041L7.07137 26.182L2.63722 27.3792L7.54969 27.4041Z" fill="#D89319"/>
<path d="M23.8901 32.7792L24.5623 16.9159L17.8917 20.9067L19.4301 24.249H23.7608L18.4735 27.4915H14.8925L14.8667 27.4416L13.2766 23.9372L7.57554 27.4915H2.26232L11.958 21.1436L9.29491 15.1076H15.2804L16.7024 18.4L18.6674 17.2402C18.8613 17.1279 19.0294 17.0032 19.1586 16.866C19.4301 16.5792 19.5594 16.3048 19.5335 16.018C19.4947 15.594 19.1198 15.3072 19.1198 15.3072L18.9001 15.145H19.1845L30.1212 15.1076V15.2074L29.8756 23.4508L38.2268 16.1053C38.6534 15.7062 38.8602 15.2947 38.8214 14.8956C38.7568 14.2097 38.0329 13.7483 38.0199 13.7358L37.7484 13.5737H45.9057L45.7247 13.7358L23.8901 32.7792ZM24.7692 16.5792L24.097 32.3427L45.4016 13.7483H38.3302C38.5758 13.9603 38.9378 14.3469 38.9895 14.8707C39.0283 15.3321 38.8085 15.7935 38.3302 16.23L29.6429 23.8748L29.9014 15.2947L19.4043 15.3321C19.5335 15.4818 19.6887 15.7062 19.7145 16.0055C19.7404 16.3423 19.5982 16.6665 19.2879 16.9908C19.1457 17.1404 18.9776 17.2651 18.7579 17.4023L16.6119 18.6744L15.1511 15.3072H9.59224L12.1907 21.2309L12.126 21.2684L2.86992 27.3169H7.52383L13.3671 23.6753L13.4059 23.7751L15.0218 27.3169H18.4218L23.1145 24.436H19.3138L19.2879 24.3861L17.6461 20.8443L17.7107 20.8069L24.7563 16.5917H24.7692V16.5792Z" fill="#C45306"/>
</g>
<defs>
<clipPath id="clip0_2053_18947">
<rect width="48" height="21.6" fill="white" transform="translate(0 13)"/>
</clipPath>
</defs>
</svg>
