<svg viewBox="0 0 20 32" fill="none" xmlns="http://www.w3.org/2000/svg">
<path d="M10.9333 30.8001C10.8667 31.1334 10.6667 31.4001 10.3333 31.4001C9.93334 31.4001 9.73334 31.2001 9.73334 30.8001C9.73334 30.4668 9.93334 30.2668 10.3333 30.2001C10.7333 30.2001 10.8667 30.4668 10.9333 30.8001ZM18.8667 20.1334C18.8667 20.6001 18.8 21.0668 18.8667 21.5334C19.1333 21.8001 19.4 21.7334 19.6667 21.4668C19.6667 21.1334 19.6667 20.8001 19.6667 20.4668C19.3333 20.4668 19.4667 19.8001 19 20.0001C18.9333 20.0001 18.8667 20.0668 18.8667 20.1334ZM19.8 18.9334C19.8 19.1334 19.8 19.3334 19.5333 19.4001C19.1333 19.5334 19.1333 19.2001 19 19.0001C18.9333 18.6001 19.0667 18.2001 18.8 17.6668C17.9333 18.5334 17.0667 19.3334 16.2667 20.2001C15.2 21.2001 14.2 22.2668 13.1333 23.2668C12.3333 24.0001 11.7333 24.8668 11.5333 25.8001C11.4 26.2001 11.0667 26.0001 11 26.1334C10.8667 26.4668 11 26.8001 10.7333 27.0001C10.7333 27.2668 11 27.2668 11.1333 27.4668C11.0667 27.8668 11.0667 28.3334 11 28.8001C10.8 28.8668 10.5333 28.9334 10.6 29.2668C10.0667 29.2001 9.93334 28.8668 9.93334 28.4668C9.86667 27.2001 9.66668 26.0001 9.13334 24.8001C9.00001 24.4668 8.80001 24.2001 8.53334 23.9334C8.46667 23.9334 8.46667 23.8668 8.46667 23.8668C8.46667 23.8001 8.46667 23.8001 8.46667 23.8001C8.53334 23.7334 8.53334 23.7334 8.60001 23.6668C8.40001 23.6001 8.20001 23.7334 8.06667 23.6001C5.73334 21.2668 3.40001 18.8668 1.06667 16.5334C-0.0666585 15.4001 -0.0666585 14.4668 1.06667 13.3334C3.26667 11.2001 5.33334 8.93345 7.60001 6.86678C8.93334 5.66678 9.60001 4.20011 9.80001 2.46678C9.86668 2.06678 9.93334 1.73345 9.93334 1.33345C9.93334 0.933447 10 0.533447 10.4667 0.533447C10.9333 0.533447 11 0.933447 11 1.33345C11.0667 2.20011 11.2 3.00011 11.4 3.80011C11.6667 4.80011 12.1333 5.66678 12.9333 6.40011C14.8 8.20011 16.6 10.0668 18.4 11.8668C18.5333 12.0001 18.7333 12.2001 18.8667 12.4001C19.3333 13.0668 19 13.7334 18.2 13.8001C16.4 13.8001 14.6667 13.8001 12.8667 13.8001C12.6 13.8001 12.4 13.7334 12.4 13.3334C12.9333 12.9334 13.6667 13.2668 14.2667 13.1334C13.3333 12.1334 12.4 11.1334 11.4667 10.2001C10.8667 9.66678 9.80001 9.73345 9.20001 10.3334C8.00001 11.4668 6.86667 12.6001 5.73334 13.8001C5.13334 14.4001 5.06667 15.4668 5.66667 16.0668C6.93334 17.4001 8.33334 18.7334 9.66667 20.0668C9.80001 20.2001 10 20.3334 10.2 20.3334C10.2667 20.3334 10.2667 20.4001 10.2667 20.4001C10.3333 20.3334 10.4667 20.3334 10.5333 20.4001C10.9333 20.5334 11.2667 20.4001 11.6 20.2668C12.8667 19.6001 13.7333 18.6001 14.2 17.2001C14.4667 16.4001 14 15.8001 13.1333 15.7334C12.2667 15.7334 11.4667 15.7334 10.6 15.7334C10.2 15.7334 9.80001 15.6668 9.80001 15.2001C9.80001 14.6668 10.1333 14.6001 10.5333 14.6001C13.0667 14.6001 15.6 14.6001 18.1333 14.6001C19.2 14.6001 19.6667 15.0668 19.6667 16.1334C19.8 17.0668 19.8 18.0001 19.8 18.9334ZM5.00001 17.2668L5.06668 17.2001C5.06668 17.1334 5.06667 17.1334 5.00001 17.0668C5.00001 17.0668 4.93334 17.0668 4.86667 17.0668C5.00001 17.2001 5.00001 17.2001 5.00001 17.2668ZM5.06668 17.9334C5.00001 18.0001 5.00001 18.0001 5.06668 18.0668C5.13334 18.0001 5.13334 18.0001 5.06668 17.9334ZM5.86667 20.5334C5.86667 20.4001 5.73334 20.4001 5.66667 20.4668C5.60001 20.5334 5.53334 20.6668 5.73334 20.6668C5.80001 20.6001 5.86667 20.6001 5.86667 20.5334ZM6.40001 17.5334C6.33334 17.5334 6.26667 17.5334 6.20001 17.5334C6.20001 17.6001 6.20001 17.6668 6.26667 17.6668C6.33334 17.6668 6.33334 17.6668 6.40001 17.6668C6.33334 17.6668 6.33334 17.6001 6.40001 17.5334ZM7.06667 20.3334C7.00001 20.2668 6.93334 20.2668 6.86667 20.3334C6.93334 20.4001 7.00001 20.4001 7.06667 20.3334ZM9.00001 21.8668C8.93334 21.8668 8.93334 21.8668 9.00001 21.8668C8.93334 21.8668 8.93334 21.8668 9.00001 21.8668ZM9.20001 22.4668C9.13334 22.4668 9.06667 22.4001 9.00001 22.3334C8.86667 22.4001 8.86667 22.4668 8.93334 22.6001C9.06667 22.6001 9.13334 22.5334 9.20001 22.4668ZM9.60001 21.2668C10 21.1334 10.0667 20.6668 10.3333 20.4001C10.2 20.5334 10 20.6001 9.86667 20.6668C9.73334 20.8668 9.66667 21.0668 9.60001 21.2668ZM10.2667 25.0668C10.2 25.0001 10.2 25.0001 10.2 25.0668C10.2 25.0668 10.2 25.0668 10.2667 25.0668ZM10.4667 28.6668C10.4 28.6668 10.4 28.6001 10.4667 28.6668C10.4 28.6001 10.4 28.6668 10.4 28.6668C10.4 28.6668 10.4 28.6668 10.4667 28.6668C10.4 28.6668 10.4667 28.6668 10.4667 28.6668ZM11.2 23.0668C10.8 23.0668 10.3333 23.2668 9.93334 22.9334C9.86667 23.0001 9.80001 23.0001 9.80001 23.0668C9.73334 23.2668 10 23.3334 10.0667 23.4668C10.3333 23.0001 10.8667 23.4001 11.2 23.0668ZM12.2667 23.3334C12.2667 23.4001 12.2667 23.4668 12.2667 23.5334C12.2 23.5334 12.1333 23.6001 12.1333 23.6001C12.2 23.6668 12.3333 23.7334 12.4 23.6001C12.4667 23.4668 12.4 23.4001 12.2667 23.3334ZM19 19.8668C18.8667 19.8668 18.8667 19.7334 18.9333 19.6668C19.0667 19.6001 18.9333 19.7334 19 19.8668Z" fill="#7B1A1D"/>
</svg>
